<svg xmlns="http://www.w3.org/2000/svg" width="54" height="33" fill="none" viewBox="0 0 54 33">
    <path fill="#fff" fill-opacity=".12" fill-rule="evenodd" d="M27.842 20.059h1.536l.472-2.56c.453-1.674 1.182-1.556 1.556-1.556l.394-1.477c-.768 0-1.22.276-1.457.551l-.138-.551h-1.32l-1.043 5.593zm11.93-2.52c-.257-.04-.828-.198-1.32.137-.493.335-.63.925-.118 1.122.493.19 1.22-.137 1.319-.65l.118-.61zm-2.364-2.974l-.236 1.22c.374-.039 1.378-.196 1.91-.177.532.02 1.122-.06.945.788-.394.04-3.151-.394-3.584 1.969-.177 1.162.827 1.753 1.615 1.713.787-.039 1.004-.137 1.28-.334l.197.315h1.437l.611-3.072c.158-.768.413-2.62-2.167-2.62-.472.02-1.004 0-2.008.198 1.004-.198 0 0 0 0zM48.85 17.36c.157-.512.071-1.152-.099-1.379-.472-.63-1.56-.131-1.89 1.103-.217.807.256 1.418.788 1.418.57 0 .925-.453 1.2-1.142zm.551-2.304c-.296-.217-.472-.67-1.201-.67-.847 0-2.167-.157-2.915 2.403-.5 1.71.512 3.269 1.615 3.269.512-.02 1.024-.236 1.339-.454l.197.454h1.654l1.34-7.168h-1.616l-.413 2.166zm-13.096-.237l1.005-1.004c-.394-.433-.848-.86-2.108-.906-1.063-.04-2.885.737-3.466 2.856-.788 2.875.945 4.293 2.54 4.293.847 0 1.36-.119 1.871-.355l-.453-1.378c-1.575.531-2.698-.276-2.442-1.91.217-1.382 1.36-1.871 1.871-1.871.513 0 .788.039 1.182.275zm-22.529 2.718c-.256-.04-.827-.197-1.32.138-.492.335-.63.925-.117 1.122.492.19 1.22-.137 1.319-.65l.118-.61zm-2.363-2.973l-.237 1.22c.375-.039 1.38-.196 1.91-.177.533.02 1.123-.06.946.788-.394.04-3.15-.394-3.584 1.969-.177 1.162.827 1.753 1.614 1.713.789-.039 1.005-.137 1.28-.334l.198.315h1.437l.611-3.072c.158-.768.413-2.62-2.166-2.62-.473.02-1.005 0-2.01.198 1.005-.198 0 0 0 0zm-1.694 5.494L11 13.245H8.48L6.608 17.38l-.296-4.136H3.85l-1.319 6.814h1.536l.945-4.924.414 4.924h1.457l2.147-4.805-.906 4.805h1.595zm9.965-4.333l.354-1.142c-.729-.276-1.3-.217-1.516-.217-.217 0-2.06-.022-2.343 1.34-.217 1.043.165 1.476.531 1.634.59.256.926.493 1.241.65.39.195.318.847-.197.847-.236 0-1.26.118-2.028-.138l-.217 1.162c.71.197 1.28.197 1.812.197.374 0 2.206.098 2.461-1.595.125-.826-.236-1.202-.531-1.379-.295-.197-.788-.472-1.103-.61-.315-.139-.552-.67.02-.827.354-.04 1.083-.04 1.516.078-.433-.118 0 0 0 0zm4.864.788h1.91c.1-.551-.078-1.024-.689-1.024-.61 0-1.043.315-1.22 1.024.177-.709 0 0 0 0zm3.25 1.024c.177-.906.59-3.151-2.107-3.151-2.482 0-2.797 2.462-2.856 2.816-.059.355-.099 2.856 2.56 2.856.65.02 1.595-.06 1.97-.256l.236-1.162c-.236.059-1.123.137-1.734.137-.61 0-1.594.04-1.417-1.24h3.348zM21.14 12.97l-1.063 5.357c-.296 1.535.867 1.752 1.22 1.752.355 0 .808-.059 1.143-.275l.099-1.142c-.887.137-.926-.256-.847-.69l.433-2.284h.788l.275-1.221h-.827l.315-1.497h-1.536zm20.428 7.086h1.551l.478-2.587c.458-1.69 1.174-1.591 1.552-1.591l.417-1.472c-.776 0-1.233.278-1.472.557l-.14-.557h-1.332l-1.054 5.65zm11.22-3.577c0-8.432-6.835-15.268-15.267-15.268-3.658 0-6.987 1.28-9.617 3.427 2.006 1.936 3.537 4.36 4.358 7.101h-1.268c-.795-2.436-2.192-4.586-4.007-6.31-1.804 1.72-3.188 3.878-3.98 6.303h-1.27c.819-2.725 2.324-5.153 4.314-7.083-2.623-2.124-5.936-3.438-9.575-3.438-8.43 0-15.266 6.836-15.266 15.268 0 8.43 6.835 15.266 15.266 15.266 3.639 0 6.952-1.312 9.575-3.437-1.99-1.93-3.495-4.358-4.313-7.084h1.269c.792 2.426 2.176 4.584 3.98 6.305 1.815-1.725 3.212-3.875 4.007-6.312h1.268c-.821 2.741-2.352 5.166-4.358 7.102 2.63 2.146 5.959 3.426 9.617 3.426 8.432 0 15.267-6.835 15.267-15.266zm1.211 0c0 9.1-7.377 16.477-16.477 16.477-3.994 0-7.656-1.42-10.508-3.784-2.855 2.374-6.534 3.784-10.538 3.784C7.377 32.955 0 25.578 0 16.478 0 7.378 7.377 0 16.477 0c4.004 0 7.683 1.41 10.538 3.784C29.867 1.421 33.53 0 37.523 0 46.623 0 54 7.377 54 16.478z" clip-rule="evenodd"/>
</svg>
