<svg xmlns="http://www.w3.org/2000/svg" width="116" height="24" fill="none" viewBox="0 0 116 24">
    <g opacity=".12">
        <path fill="#fff" d="M32.454 7.961h3.454v9.395h-2.144V9.864h-.06c-.208.965-.386 1.639-.476 1.99l-1.637 5.502h-1.608l-1.638-5.502c-.06-.146-.149-.41-.208-.732-.09-.322-.15-.614-.209-.878l-.089-.38h-.06v7.521h-2.084V7.962h3.454l1.191 4.361c.03.176.09.41.179.761.09.351.149.644.208.878l.09.38h.06c.207-.965.327-1.638.446-1.99l1.131-4.39zM41.09 10.215c1.13 0 2.054.322 2.709.966.655.643.982 1.55.982 2.692 0 1.142-.327 2.02-.982 2.693-.655.644-1.548.995-2.71.995-1.161 0-2.054-.322-2.71-.995-.654-.673-.982-1.551-.982-2.693 0-1.141.328-2.02.983-2.692.655-.644 1.548-.966 2.71-.966zm0 5.795c.476 0 .863-.176 1.13-.527.269-.351.418-.878.418-1.58 0-.703-.15-1.23-.417-1.581-.268-.351-.655-.527-1.132-.527-.476 0-.863.176-1.131.527-.268.351-.387.878-.387 1.58 0 .703.119 1.23.387 1.581s.625.527 1.131.527zM48.117 10.39v.937h.06c.535-.732 1.28-1.112 2.233-1.112.744 0 1.34.204 1.786.644.447.439.685 1.082.685 1.931v4.595h-2.114v-4.097c0-.498-.09-.849-.298-1.083-.208-.205-.506-.322-.893-.322s-.715.146-.953.439c-.268.293-.387.702-.387 1.259v3.775h-2.114V10.39h1.995zM61.306 15.22c-.03.292-.089.556-.238.82-.119.262-.327.497-.595.73-.268.235-.626.41-1.072.557-.447.146-.953.205-1.549.205-1.131 0-2.024-.322-2.68-.995-.654-.644-.982-1.552-.982-2.664 0-1.141.328-2.048.953-2.692.625-.644 1.518-.996 2.65-.996 1.102 0 1.965.322 2.62.966.655.644.953 1.552.953 2.752v.41h-5.002c0 .585.119 1.024.387 1.346.268.321.655.468 1.131.468.387 0 .715-.088.893-.263.209-.176.328-.381.388-.644h2.143zm-2.471-3.19c-.268-.264-.596-.41-1.012-.41-.417 0-.745.146-1.013.41-.268.263-.387.614-.417 1.024h2.83c0-.41-.12-.761-.388-1.025zM66.011 15.893c.268 0 .506-.03.685-.088v1.58c-.328.118-.804.176-1.34.176-.774 0-1.34-.146-1.667-.41-.328-.263-.507-.76-.507-1.463v-3.922H62.11V10.42h1.072V8.488h2.114v1.932h1.43v1.346h-1.43v3.454c0 .263.06.439.15.526.118.088.327.147.565.147zM68.007 9.044V7.405h2.114v1.64h-2.114zm0 8.342V10.39h2.114v6.995h-2.114zM78.636 17.385h-2.411l-1.28-2.136-1.34 2.136h-2.353l2.382-3.512-2.203-3.454h2.352l1.191 1.99 1.191-1.99h2.293l-2.233 3.396 2.411 3.57zM89.535 17.386l-1.608-5.825c-.238-.878-.447-1.96-.447-1.96h-.06s-.208 1.082-.446 1.96l-1.578 5.795h-1.25l-2.561-9.424h1.25l1.49 5.912c.208.878.416 1.99.416 1.99h.06s.208-1.082.446-1.96l1.578-5.942h1.162l1.578 5.941c.238.879.446 1.962.446 1.962h.06s.208-1.083.417-1.962l1.518-5.941h1.28l-2.59 9.454h-1.161zM98.884 16.537c.12 0 .268-.03.358-.059v.907c-.09.03-.388.06-.655.06-.715 0-1.102-.294-1.162-.938h-.06c-.505.79-1.547 1.025-2.352 1.025-1.25 0-2.233-.79-2.233-2.078 0-1.493 1.043-1.99 2.233-2.166l1.37-.205c.626-.088 1.013-.322 1.013-.907 0-.615-.536-1.025-1.49-1.025-.922 0-1.667.352-1.726 1.288h-1.102c0-1.492 1.22-2.224 2.829-2.224 1.637 0 2.62.732 2.62 1.96v3.923c0 .35.149.439.357.439zm-1.488-2.869c-.15.176-.656.264-1.102.352l-.953.146c-.655.117-1.43.38-1.43 1.317 0 .761.507 1.17 1.281 1.17.893 0 2.204-.467 2.204-2.048v-.937zM100.105 7.112h1.012v10.274h-1.012V7.112zM102.219 7.112h1.012v10.274h-1.012V7.112zM110.08 15.337c-.06.907-.774 2.195-2.74 2.195-1.875 0-3.096-1.434-3.096-3.63 0-2.195 1.191-3.629 2.948-3.629 1.727 0 2.977 1.347 2.977 3.63v.234h-4.853c0 1.463.774 2.488 2.024 2.488 1.221 0 1.579-.79 1.668-1.288h1.072zm-4.734-2.078h3.781c-.06-1.054-.744-2.078-1.906-2.078-1.131 0-1.816 1.024-1.875 2.078zM113.95 16.45v.936c-.179.088-.596.146-1.013.146-1.191 0-1.697-.41-1.697-1.61V11.27h-1.191v-.85h1.191V8.43h1.132v1.99h1.369v.85h-1.369v4.536c0 .556.178.761.774.761.298.03.655-.058.804-.117z"/>
    </g>
    <g opacity=".4">
        <path fill="#fff" fill-opacity=".1" d="M14.023 22.507c4.424 0 8.01-1.166 8.01-2.605 0-1.438-3.586-2.604-8.01-2.604-4.423 0-8.01 1.166-8.01 2.605 0 1.438 3.587 2.604 8.01 2.604z"/>
        <path fill="url(#prefix__paint0_radial)" d="M12.028 20.107c4.555 0 8.247-3.63 8.247-8.107 0-4.478-3.692-8.108-8.247-8.108-4.556 0-8.248 3.63-8.248 8.107 0 4.478 3.692 8.108 8.248 8.108z"/>
        <path fill="#fff" d="M15.243 19.492C12.325 18.087 10.36 15.278 10.36 12c0-3.25 1.995-6.088 4.883-7.464-.417-.175-.834-.322-1.28-.41C10.538 5.298 8.097 8.4 8.097 12.03c0 3.63 2.441 6.702 5.866 7.902.417-.146.863-.292 1.28-.439z" opacity=".2"/>
    </g>
    <defs>
        <radialGradient id="prefix__paint0_radial" cx="0" cy="0" r="1" gradientTransform="matrix(7.93951 0 0 7.8043 10.573 8.033)" gradientUnits="userSpaceOnUse">
            <stop offset=".005" stop-color="#fff"/>
            <stop offset=".401" stop-color="#999"/>
            <stop offset=".599" stop-color="#828282"/>
            <stop offset=".719" stop-color="#6D6D6D"/>
            <stop offset=".859" stop-color="#5C5C5C"/>
            <stop offset="1" stop-color="#545454"/>
        </radialGradient>
    </defs>
</svg>
