<svg xmlns="http://www.w3.org/2000/svg" width="75" height="13" fill="none" viewBox="0 0 75 13">
    <path fill="#fff" fill-opacity=".12" fill-rule="evenodd" d="M70.127 5.568c-.426.292-1.045.437-1.892.437h-.84l.644-3.424h.617c.703 0 1.217.111 1.57.337.277.178.605.529.605 1.194 0 .803-.381 1.235-.704 1.456zM20.023 9.865h-6.5l.42-2.238h4.077l.464-2.521h-4.038l.39-2.215h6.489l-1.302 6.974zM73.63.97C72.672.325 71.227 0 69.33 0h-4.966l-1.846 9.865h-6.505l.417-2.238h3.919l.466-2.514-3.917.007.42-2.228h4.036L61.892 0h-8.199l-1.752 9.36h-3.006L50.7 0h-4.286l-1.752 9.36h-2.931L43.497 0h-4.281l-1.85 9.866h-6.552l.413-2.238h3.937l.463-2.5-3.93-.004.417-2.232h4.08L36.73 0H11.188L9.734 7.818 6.838 0H2.393L0 12.758h4.245l1.448-8.033 2.81 8.033H23.72l1.85-9.867h2.38l-1.85 9.867h40.036l1.16-6.229 1.88 6.23h4.247l-1.946-5.09.444-.095c.98-.206 1.745-.65 2.277-1.317.532-.672.803-1.535.803-2.572 0-1.207-.448-2.095-1.371-2.715z" clip-rule="evenodd"/>
</svg>
