<svg xmlns="http://www.w3.org/2000/svg" width="68" height="34" fill="none" viewBox="0 0 68 34">
    <path fill="#fff" fill-opacity=".12" fill-rule="evenodd" d="M23.259 23.857c-.005-.005-.008-.005-.013-.008-.01 0-.018-.004-.025-.007-.01-.003-.02-.008-.03-.01-.006 0-.015 0-.017-.003l-.05-.015c-.203-.035-.405-.005-.572.102-.38.258-.438.84-.127 1.303.145.21.34.356.549.436.004 0 .007 0 .016.005.007.002.015.007.022.007.01.005.02.005.03.008.008 0 .012.003.018.005.017.005.03.01.047.012.201.04.404.011.573-.102.383-.257.441-.837.129-1.3-.144-.21-.34-.36-.55-.433zm2.542-1.068c-.322-.12-.35.258-.27.505.18.577.422 1.018.6 1.105.17.104.372-.134.243-.71-.055-.251-.245-.774-.573-.9zm2.124 5.877c-.618-.366-1.315-.625-1.924-.823-1.399-.451-2.752-.555-4.33-.825-1.283-.218-2.297-.743-3.384-1.478-.566-.386-1.029-.915-1.416-1.475-.072-.113-.434-.551-.398-.702 0 0-.252 1.005.248 2.416-4.591-.205-8.615-2.74-10.458-5.813C2.87 14.311 4.066 7.457 8.59 4.431c4.523-3.027 11.419-.892 15.11 4.573 2.317 3.43 2.91 7.42 1.918 10.665l-.024.074c-1.962-1.421-3.754-.696-3.754-.696 1.967-.202 3.52 1.356 3.52 1.356.229.202.448.426.647.674.044.061.091.123.136.188.514.696.836 1.47.972 2.255 3.902-4.931 4.548-11.761 1.093-17.065C23.81-.305 14.43-2.032 7.264 2.594.095 7.224-2.148 16.451 2.254 23.21c3.614 5.562 12.096 7.259 16.957 5.726 1.838-.575 8.132-1.123 12.512 4.03 0 0 .378.431.584.922 0 0 .061.172.224.09.042-.023.164-.163-.252-.994-.927-1.88-2.572-3.26-4.354-4.318zm35.177-17.323h-.986c-.203 0-.278.056-.335.29l-1.684 6.62-2.063-6.58c-.087-.274-.1-.3-.2-.33h-.554c-.159 0-.189.083-.26.29l-2.03 6.62-1.673-6.594c-.073-.305-.133-.316-.377-.316h-1.364c-.146 0-.279.045-.279.217 0 .056 0 .073.046.23l2.716 9.484c.07.232.149.272.408.272.215 0 .608 0 .65-.014.144-.012.174-.055.247-.27l1.945-6.163 2.075 6.175c.073.218.118.258.26.272h.716c.201 0 .244-.054.318-.285l2.673-9.471c.027-.144.041-.204.041-.26 0-.187-.129-.187-.29-.187zm4.413 0h-1.38c-.262 0-.292.1-.302.303v9.581c0 .265.115.305.315.319h1.354c.187 0 .316-.04.316-.319v-9.58c0-.26-.09-.304-.303-.304zm-25.897 7.95c.493-.883.582-2.098.567-2.947 0-.696-.087-1.982-.696-2.923-.652-1.012-1.542-1.098-1.873-1.098-.7 0-1.45.378-1.948 1.143-.507.812-.64 1.966-.64 2.935 0 .895.12 2.094.64 2.978.727 1.201 1.744 1.201 1.933 1.201.71 0 1.496-.38 2.017-1.29zm3.12 5.247c0 .16-.1.421-.508.421-.288 0-4.093-.437-5.283-3.224-2.873-.463-3.961-2.876-3.961-5.222 0-3.582 2.116-5.407 4.643-5.407 2.742 0 4.601 2.173 4.601 5.295 0 1.719-.624 4.22-3.22 5.189.48 1.632 2.278 2.255 3.148 2.489.363.084.58.143.58.46zm4.137-12.894v9.581c0 .28-.129.319-.318.319h-1.351c-.202-.014-.316-.054-.316-.319v-9.58c.012-.204.04-.304.3-.304h1.381c.219 0 .304.045.304.303z" clip-rule="evenodd"/>
</svg>
