<svg xmlns="http://www.w3.org/2000/svg" width="55" height="19" fill="none" viewBox="0 0 55 19">
    <path fill="#fff" fill-opacity=".12" fill-rule="evenodd" d="M39.506 4.513c1.248 0 2.258-1.01 2.258-2.256 0-1.246-1.01-2.257-2.258-2.257-1.245 0-2.255 1.011-2.255 2.257 0 1.246 1.01 2.256 2.255 2.256zM22.217 5.731c-.102.256-.835 2.327-2.608 4.473V1.027l-4.725.934v16.635h4.725v-5.142c1.368 2.052 2.044 5.142 2.044 5.142h5.659c-.56-2.327-3.009-6.618-3.009-6.618 2.198-2.786 3.163-5.755 3.317-6.247h-5.403zm12.42-.173c-4.23.136-6.38 2.034-6.38 5.808v7.23h4.618V12.7c0-2.26.295-3.228 2.977-3.32V5.623c-.451-.096-1.214-.066-1.214-.066zM6.962 7.563c-.579-.038-1.919-.124-1.919-1.33 0-1.456 1.93-1.456 2.653-1.456 1.272 0 2.919.375 4.096.728 0 0 .656.231 1.215.468l.051.014V2.001l-.07-.021c-1.39-.486-3.004-.953-5.997-.953C1.829 1.027 0 4.034 0 6.61c0 1.485.636 4.98 6.547 5.383.501.03 1.83.107 1.83 1.353 0 1.03-1.088 1.636-2.919 1.636-2.006 0-3.953-.511-5.135-.997v4.106c1.77.463 3.765.695 6.103.695 5.047 0 7.307-2.844 7.307-5.664 0-3.196-2.53-5.274-6.772-5.558zm30.257 11.033h4.58V5.746h-4.58v12.85zM50.42 1.846v16.75H55V1.027l-4.58.819zm-6.683 0l4.575-.819v17.57h-4.575V1.845z" clip-rule="evenodd"/>
</svg>
