<svg xmlns="http://www.w3.org/2000/svg" width="46" height="35" fill="none" viewBox="0 0 46 35">
    <path fill="#FEFEFE" fill-opacity=".12" fill-rule="evenodd" d="M44.296 17.463c0-8.69-9.553-15.76-21.296-15.76-11.743 0-21.296 7.07-21.296 15.76 0 3.355 1.5 6.691 4.223 9.395l.987.98-.764 1.164c-.822 1.254-1.76 2.44-2.801 3.544 2.433-.192 4.934-.752 7.327-1.646l.657-.245.64.288c3.308 1.491 7.122 2.28 11.027 2.28 11.743 0 21.296-7.07 21.296-15.76zm1.704 0c0 9.617-10.312 17.463-23 17.463-4.145 0-8.189-.835-11.727-2.43-3.205 1.197-6.591 1.828-9.794 1.828-.182 0-.363-.001-.544-.005-.303 0-.581-.203-.682-.506-.101-.305-.026-.633.202-.836 1.693-1.493 3.11-3.138 4.271-4.91C1.668 25.03 0 21.285 0 17.464 0 7.846 10.313 0 23 0c12.688 0 23 7.846 23 17.463zM32.01 15.55c0-.619.554-.891 1.638-.916 1.11-.025 2.245.273 3.077.866v-1.955c-.858-.495-2.068-.767-3.253-.767-1.967 0-3.657.915-3.657 2.796 0 3.49 5.472 2.798 5.472 4.63 0 .692-.706.94-1.865.94-1.16 0-2.422-.297-3.557-1.04v2.005c1.034.569 2.32.891 3.707.891 2.119 0 3.91-.693 3.91-2.895 0-3.49-5.473-2.847-5.473-4.555zm-9.423 2.532l-3.51-5.304h-2.04V23h2.194v-6.309l2.711 4.12h1.29l2.685-4.093V23h2.194V12.778h-2.04l-3.484 5.304zm-6.402 2.023c0 2.202-1.79 2.895-3.909 2.895-1.387 0-2.673-.322-3.707-.891v-2.004c1.134.741 2.396 1.039 3.556 1.039 1.16 0 1.866-.248 1.866-.94 0-1.832-5.472-1.14-5.472-4.63 0-1.88 1.69-2.796 3.656-2.796 1.185 0 2.396.272 3.254.767V15.5c-.832-.593-1.967-.89-3.077-.866-1.085.025-1.64.297-1.64.916 0 1.708 5.473 1.064 5.473 4.555z" clip-rule="evenodd"/>
</svg>
