<svg xmlns="http://www.w3.org/2000/svg" width="57" height="19" fill="none" viewBox="0 0 57 19">
    <path fill="#FEFEFE" fill-opacity=".12" fill-rule="evenodd" d="M16.21.33l-.824 2.254-3.693 10.107-.483-2.512-1.617-8.331C9.314.7 8.503.358 7.502.318H.06L0 .694c1.81.47 3.428 1.147 4.847 1.988L8.95 18.43l4.883-.003 1.553-3.869L21.098.331H16.21zm6.756-.014l-.075.468-2.811 17.662h4.614l1.098-6.899L27.58.316h-4.614zm28.438 11.702c-.182-.906-1.068-5.234-1.068-5.234l-.31-1.564c-.234.68-.641 1.778-.615 1.73 0 0-1.455 4.026-1.837 5.068h3.83zM57 18.453h-4.283s-.423-2.084-.562-2.717c-.672 0-5.38-.01-5.91-.01l-.121.34c-.283.788-.848 2.387-.848 2.387H40.43l5.694-13.808 1.158-2.809C47.766.655 48.594.334 49.7.334h3.566L57 18.453zm-16.24-5.93c-.028 2.909-1.925 5.016-5.024 5.825-.907.236-1.912.367-3.01.367-.151-.002-.302-.01-.452-.016-1.904-.076-3.69-.482-4.689-.95l.646-4.058.593.287c1.25.559 2.143.839 3.45.922.28.018.571.03.897.03 1.044 0 2.136-.352 2.565-1.091.116-.2.194-.422.196-.68.002-.246-.063-.47-.196-.688-.294-.488-.958-.949-2.2-1.562-.402-.2-.835-.431-1.262-.7-1.43-.899-2.8-2.22-2.777-4.225.015-1.996 1.053-3.65 2.777-4.708.96-.59 2.133-.995 3.462-1.172.5-.067 1.019-.104 1.56-.104 1.787 0 3.221.396 4.134.76l-.624 3.93-.415-.206c-.852-.37-1.944-.722-3.453-.697-.465 0-.864.055-1.202.147-.977.266-1.44.854-1.442 1.413-.008.623.525 1.09 1.442 1.624.336.196.718.4 1.15.625 2.662 1.293 3.891 2.86 3.875 4.926z" clip-rule="evenodd"/>
</svg>
