<svg xmlns="http://www.w3.org/2000/svg" width="99" height="25" fill="none" viewBox="0 0 99 25">
    <path fill="#fff" fill-opacity=".12" fill-rule="evenodd" d="M64.743 10.312h1.498l-2.546 7.066c-.7 1.948-1.573 2.971-3.196 2.971v-1.148c.948 0 1.548-.774 1.897-1.798l-2.721-7.066h1.548l1.797 5.193h.075l1.648-5.218zm-10.062 2.772h3.22c-.074-1.474-.798-2.073-1.547-2.073-.874 0-1.523.674-1.673 2.073zm4.345 2.671v1.074c-.625.374-1.474.649-2.497.649-2.372 0-3.346-1.473-3.346-3.695 0-2.148 1.099-3.696 3.196-3.696 1.773 0 2.846 1.149 2.846 3.446v.524h-4.594c0 1.698.7 2.447 2.147 2.447.774-.025 1.474-.3 2.248-.749zm-13.084-4.644c.624-.375 1.972-1.049 3.596-1.049 1.697 0 2.322.674 2.322 2.123v5.118h-1.474V12.51c0-1.123-.549-1.323-1.273-1.323-.574 0-1.273.25-1.723.5v5.592h-1.473v-6.167h.025zm-2.821 2.647c0-1.898-.775-2.722-1.748-2.722-.924 0-1.748.8-1.748 2.722s.724 2.721 1.748 2.721 1.748-.774 1.748-2.721zm-4.944 0c0-2.472 1.348-3.696 3.22-3.696 1.873 0 3.222 1.224 3.222 3.696 0 2.422-1.274 3.695-3.221 3.695-1.948.025-3.221-1.273-3.221-3.695zM31.76 15.18h.075l3.021-7.89h1.748v10.012H35.08v-7.266h-.125l-2.872 7.266h-.898l-2.897-7.09h-.125v7.09h-1.273V7.291h1.698l3.17 7.89zm-11.036 1.074c.45.2.949.224 1.298.224 1.049 0 1.848-.649 1.848-2.946 0-1.798-.65-2.372-1.598-2.372-.574 0-.974.15-1.548.474v4.62zm.025-5.668c.424-.225 1.148-.525 1.897-.525 1.748 0 2.697 1.224 2.697 3.47 0 2.648-1.273 3.921-3.32 3.921-.75 0-1.898-.25-2.747-.7V6.892l1.473-.35v4.046zm-7.34 2.497h3.22c-.075-1.474-.799-2.073-1.548-2.073-.849 0-1.498.674-1.673 2.073zm4.369 2.671v1.074c-.625.374-1.474.649-2.497.649-2.372 0-3.346-1.473-3.346-3.695 0-2.148 1.098-3.696 3.196-3.696 1.773 0 2.846 1.149 2.846 3.446v.524h-4.594c0 1.698.7 2.447 2.147 2.447.774-.025 1.473-.3 2.248-.749zM5.793 10.262h-.1L3.82 17.303H2.297L0 7.291h1.573l1.573 7.465h.1l1.848-7.465h1.248l1.973 7.465h.1l1.448-7.465h1.648L9.213 17.303H7.69l-1.897-7.041zm83.794-.674l2.222-1.973 1.973 2.198-2.198 1.972-1.997-2.197zm6.617 3.27l1.448-1.323L99 13.01l-1.473 1.323-1.323-1.473zm-3.77-8.738l1.472-1.324L95.23 4.27l-1.473 1.323-1.324-1.473zm1.872 4.37l1.473-1.324 1.323 1.473-1.473 1.323-1.323-1.473zM93.432 18.7l2.197-1.972 1.998 2.197-2.222 1.998-1.973-2.223zm-1.948-4.444l2.198-1.998 1.997 2.223-2.222 1.972-1.972-2.197zm-3.92-9.113l2.198-1.973 1.997 2.197-2.222 1.998-1.973-2.222zm-5.393 1.423l2.922-2.647 2.671 2.946-2.946 2.647-2.647-2.946zm4.195 10.112l2.946-2.647 2.647 2.947-2.946 2.646-2.647-2.946zm-2.097-5.069l2.946-2.646 2.647 2.921-2.947 2.672-2.646-2.947zM86.516 0c1.947 0 3.795.45 5.418 1.248.25.125.524.25.774.4l-1.149 1.024L89.837.899 86.94 3.47l-1.723-1.873-5.343 4.869 3.446 3.795-1.348 1.198 3.395 3.796-1.348 1.198 4.844 5.393 2.871-2.646 2.497 2.846c-.5.375-1.024.75-1.623 1.074-1.798 1.024-3.895 1.623-6.092 1.623-6.817 0-12.385-5.568-12.385-12.385C74.156 5.568 79.7 0 86.516 0z" clip-rule="evenodd"/>
</svg>
