<svg xmlns="http://www.w3.org/2000/svg" width="80" height="25" fill="none" viewBox="0 0 80 25">
    <g opacity=".12">
        <path fill="#fff" fill-rule="evenodd" d="M34.53 8.512l-.209 2.186v9.786h1.728V5.91h-1.353l-4.351 7.412-.646 1.665h-.041l-.687-1.624-4.56-7.453h-1.29v14.574h1.623v-9.807l-.291-2.165h.104l.75 1.978 4.018 6.6h.52l3.79-6.58.79-1.998h.105zm22.735 6.038v5.934h1.665v-6.288c0-.86-.073-1.572-.218-2.134-.146-.562-.362-1.01-.646-1.343-.285-.333-.642-.565-1.072-.697-.43-.132-.93-.198-1.5-.198-.777 0-1.446.142-2.008.427-.562.284-1.01.649-1.343 1.093h-.083l-.313-1.27h-1.166v10.41h1.666v-7.12c.194-.597.53-1.094 1.01-1.49.479-.395 1.085-.593 1.822-.593.832 0 1.405.274 1.717.823.312.548.469 1.363.469 2.446zm8.723-3.269c-.82 0-1.475.216-1.968.646-.492.43-.788 1.165-.884 2.207h5.163c0-1.055-.201-1.794-.604-2.218-.402-.423-.971-.635-1.707-.635zm3.581 8.37c-.416.333-.94.597-1.572.791-.632.194-1.301.291-2.009.291-.791 0-1.478-.128-2.061-.384-.583-.257-1.062-.625-1.437-1.104-.375-.479-.652-1.052-.833-1.717-.18-.667-.27-1.417-.27-2.25 0-1.776.395-3.13 1.186-4.06.792-.929 1.923-1.394 3.394-1.394.472 0 .944.052 1.416.156.472.104.895.302 1.27.593.375.292.68.705.916 1.24.236.534.354 1.238.354 2.112 0 .458-.042.966-.125 1.52h-6.683c0 .611.062 1.152.187 1.624.125.472.32.871.583 1.198.264.326.607.576 1.03.749.424.174.94.26 1.552.26.472 0 .944-.083 1.415-.25.472-.166.826-.36 1.062-.583l.625 1.208zm5.59-2.832l.584 2h.105l.46-2.02 2.026-6.725H80l-3.081 9.348c-.236.68-.47 1.34-.698 1.978-.229.638-.482 1.207-.76 1.707s-.59.899-.937 1.197c-.347.299-.75.448-1.207.448-.5 0-.91-.07-1.229-.208l.292-1.437c.18.07.354.104.52.104.388 0 .764-.205 1.125-.614.36-.41.659-1.114.895-2.113l-4.185-10.41h1.916l2.507 6.745zm-34.592-1.54c0 .527.052 1.034.156 1.52.104.486.267.909.49 1.27.221.36.513.652.874.874.36.222.798.333 1.311.333 1.888.014 2.832-1.318 2.832-3.997 0-.542-.052-1.055-.156-1.54-.104-.487-.268-.91-.49-1.271-.222-.36-.513-.649-.874-.864-.36-.215-.798-.323-1.312-.323-1.887-.013-2.83 1.32-2.83 3.998zm-1.728 0c0-1.763.392-3.113 1.176-4.05.784-.937 1.912-1.405 3.383-1.405.778 0 1.454.128 2.03.385.576.257 1.052.625 1.426 1.104.375.478.653 1.055.833 1.728.18.673.271 1.419.271 2.238 0 1.763-.392 3.112-1.176 4.05-.785.936-1.912 1.404-3.384 1.404-.777 0-1.454-.128-2.03-.385-.576-.256-1.05-.624-1.426-1.103-.374-.479-.652-1.055-.832-1.728-.18-.673-.27-1.42-.27-2.238zM7.07 7.478c.543-.646 1.334-.874 1.77-.51.434.366.347 1.185-.195 1.831-.542.647-1.334.875-1.769.51-.435-.365-.348-1.185.194-1.83zm6.689.264v7.61L2.035 19.168l9.273-6.317V1.007c0-.84-.97-1.31-1.628-.788-2.102 1.666-5.66 4.476-7.078 5.534C.102 7.62 0 8.386 0 9.593v9.26c0 .867.71 1.577 1.576 1.577h12.382c1.323 0 2.396-1.073 2.396-2.396V7.742h-2.595z" clip-rule="evenodd"/>
    </g>
</svg>
