<svg xmlns="http://www.w3.org/2000/svg" width="80" height="18" fill="none" viewBox="0 0 80 18">
    <path fill="#002F5C" fill-rule="evenodd" d="M6.805 3.594l-2.47 6.961h4.94l-2.47-6.96zM13.2 15.252c.112.257.24.481.4.69.16.209.353.369.594.497.24.113.497.177.818.177v.449H9.43v-.45c.32 0 .834-.063 1.01-.192a.988.988 0 0 0 .353-.497c.064-.193.064-.433.032-.69a3.125 3.125 0 0 0-.209-.802l-.994-2.854h-5.71s-1.09 3.336-1.138 3.624c-.065.289-.048.53.016.738a.8.8 0 0 0 .449.497c.24.113.545.177 1.01.177v.449H0V16.6c.337-.08.513-.129.658-.209.128-.064.224-.128.352-.257.45-.449.77-1.218 1.027-1.94L7.12 0h.45l5.308 14.434.1.265c.073.192.143.377.22.553zM20.869 4.09l3.881 9.895 3.737-9.895h3.336v.369c-1.219.096-1.427.352-1.46 1.764v8.708c.033 1.412.257 1.684 1.46 1.765v.369h-4.7v-.37c1.316-.095 1.508-.304 1.524-1.972V5.837L24.35 17.064h-.24L19.89 6.286v7.89c.032 2.006.273 2.423 1.572 2.503v.369h-3.945v-.37c1.363-.096 1.588-.416 1.62-2.501V6.222c-.032-1.476-.209-1.684-1.588-1.764v-.37h3.32zm16.927 8.054l1.892-5.292 1.877 5.292h-3.77zm7.045 4.097a2.858 2.858 0 0 1-.304-.529 13.02 13.02 0 0 1-.24-.626l-4.042-11.13h-.321l-3.865 10.954c-.193.545-.434 1.139-.77 1.476-.067.066-.126.11-.183.152-.025.018-.05.036-.074.056-.112.064-.24.096-.497.16v.353h3.224v-.353c-.353 0-.594-.048-.77-.144-.177-.096-.289-.208-.337-.369a1.091 1.091 0 0 1-.016-.561c.032-.225.866-2.759.866-2.759h4.314l.754 2.165c.08.209.128.417.16.61.033.192.016.369-.032.53a.68.68 0 0 1-.272.368c-.129.096-.53.144-.77.144v.353H45.9v-.337c-.24 0-.449-.048-.61-.144a1.236 1.236 0 0 1-.449-.369zm2.94-12.248v.016h9.43l.096 3.352h-.401c-.369-2.165-.722-2.502-2.662-2.534h-.899v10.056c.017 1.444.24 1.7 1.604 1.78v.37h-4.875v-.37c1.411-.096 1.555-.288 1.571-1.988V4.81h-.898c-1.924.048-2.277.385-2.662 2.534h-.401l.096-3.352zm31.914 10.325c-1.25 1.363-2.357 1.924-3.752 1.924-1.06 0-2.005-.385-2.727-1.106-.93-.93-1.444-2.663-1.444-4.78 0-3.48 1.572-5.693 4.01-5.693.962 0 1.844.4 2.518 1.154.545.61.786 1.155 1.107 2.39h.385l-.16-4.298h-.354c-.096.4-.368.625-.705.625-.145 0-.401-.064-.658-.16a6.871 6.871 0 0 0-2.454-.481c-1.379 0-2.758.593-3.833 1.652-1.187 1.187-1.828 2.95-1.828 5.052 0 3.897 2.245 6.495 5.597 6.495 1.909 0 3.593-.882 4.603-2.422l-.305-.352zm-18.54-9.879h-.016V4.07h4.94v.37c-1.38.063-1.604.304-1.636 1.763v8.677c.032 1.46.272 1.732 1.636 1.764v.37h-4.924v-.37c1.411-.064 1.604-.272 1.62-1.764V6.202c-.016-1.475-.209-1.668-1.62-1.764z" clip-rule="evenodd"/>
</svg>
