<svg xmlns="http://www.w3.org/2000/svg" width="90" height="22" fill="none" viewBox="0 0 90 22">
    <path fill="url(#a)" fill-rule="evenodd" d="M.4 3.661C2.397 1.424 5.294 0 8.49 0 14.585 0 19.38 4.984 19.38 10.883c0 6.102-4.895 11.085-10.888 11.085-3.197 0-6.094-1.424-8.091-3.661l-.1-.102c-.1-.203-.2-.508-.2-.712 0-.61.5-1.118 1.099-1.118.3 0 .599.203.799.406.1 0 .1.102.1.102.5.61 1.298 1.322 1.298 1.322 1.399 1.12 3.197 1.73 5.095 1.73 4.794 0 8.79-4.069 8.79-8.95 0-4.883-3.896-8.95-8.79-8.95-1.998 0-3.796.711-5.295 1.83 0 0-.599.508-1.098 1.119l-.1.101c-.038.04-.062.078-.082.111-.033.054-.056.093-.118.093 0 .101-.1.101-.1.101-.2.102-.4.204-.6.204C.5 5.594 0 5.085 0 4.475c0-.203.1-.407.2-.61 0-.063.038-.087.09-.12.033-.02.071-.045.11-.084zm6.093 13.73c-.5 0-.999-.51-.999-1.12 0-.508.4-1.017.9-1.017H9.39s.4 0 .799-.203c.7-.407 1.099-1.22 1.099-2.034 0-1.322-1.099-2.441-2.498-2.441-.2 0-.499 0-.799.102-.799.203-1.398.203-1.698.101-.5-.101-.899-.61-.899-1.118V5.49c0-.61.5-1.12 1.099-1.12.6 0 1.099.51 1.099 1.12v3.356c.5-.204 1.099-.305 1.698-.305 2.397 0 4.395 2.034 4.395 4.475 0 2.034-1.398 3.763-3.196 4.271-.1.102-.2.102-.3.102H6.493zm.8-3.252c.606 0 1.098-.5 1.098-1.118 0-.618-.492-1.12-1.099-1.12s-1.099.502-1.099 1.12c0 .617.492 1.118 1.1 1.118zM26.67 8.035c.799-.814 1.698-1.22 2.796-1.22 2.398 0 4.296 2.339 4.296 4.983 0 2.848-1.898 5.086-4.296 5.086-1.098 0-1.997-.509-2.796-1.22v.1c0 .611-.5 1.221-1.2 1.221-.598 0-1.198-.508-1.198-1.22V4.78c0-.61.5-1.22 1.199-1.22.6 0 1.199.508 1.199 1.22v3.254zm2.2 6.819c-1.2 0-2.198-1.322-2.198-3.051 0-1.73.999-3.052 2.197-3.052 1.199 0 2.198 1.323 2.198 3.052s-1 3.05-2.198 3.05zm11.687-6.92c0 .61-.5 1.118-1.099 1.118-1.498.102-2.397 1.322-2.497 2.746 0 1.526.799 2.848 2.397 2.95.6 0 1.099.508 1.099 1.119 0 .61-.5 1.118-1.099 1.118h-.2c-2.797-.203-4.694-2.44-4.694-5.085 0-2.644 2.097-4.882 4.794-5.085h.2c.6 0 1.099.508 1.099 1.119zm13.086-1.12h-.2c-.6 0-1.099.51-1.099 1.12 0 .61.5 1.118 1.099 1.118 1.498.204 2.397 1.424 2.397 2.848 0 1.526-.799 2.746-2.397 2.95-.6 0-1.099.508-1.099 1.118 0 .61.5 1.12 1.099 1.12h.2c2.797-.204 4.695-2.442 4.695-5.086.1-2.746-1.998-4.984-4.695-5.187zm-11.79 5.187c0-2.848 2.097-5.086 4.694-5.086s4.695 2.238 4.695 5.086c0 2.847-2.098 5.085-4.695 5.085-2.597 0-4.695-2.238-4.695-5.085zm4.696 2.953c-1.298 0-2.297-1.322-2.297-3.05 0-1.73.999-3.052 2.297-3.052 1.299 0 2.298 1.322 2.298 3.051 0 1.73-1.099 3.051-2.298 3.051zM80.61 11.9c0-2.848 2.098-5.085 4.695-5.085C87.902 6.815 90 9.052 90 11.9s-2.098 5.085-4.695 5.085c-2.597 0-4.695-2.237-4.695-5.085zm4.697 3.054c-1.298 0-2.297-1.322-2.297-3.05 0-1.73.999-3.052 2.297-3.052 1.299 0 2.298 1.322 2.298 3.051 0 1.73-1 3.051-2.298 3.051zm-18.481-7.63c.2.101.5.304.7.508.399.508.798 1.017.699 1.83v6.103c0 .61-.5 1.22-1.2 1.22-.599 0-1.198-.508-1.198-1.22v-5.289c0-.193-.08-.387-.139-.528a.655.655 0 0 1-.06-.184c-.4-.915-1.499-.915-1.499-.915-.899 0-1.398.61-1.598 1.017 0 .037-.014.102-.03.183-.03.142-.07.335-.07.529v5.085c0 .61-.5 1.22-1.199 1.22-.6 0-1.198-.508-1.198-1.22V8.035c0-.61.499-1.22 1.198-1.22.6 0 1.099.508 1.199 1.119.4-.509.999-.814.999-.814a3.807 3.807 0 0 1 2.297-.203s.5.101 1.099.406zm11.289-.306h-.3c-.5 0-.999.407-1.099.916a3.824 3.824 0 0 0-2.697-1.12c-2.397 0-4.295 2.238-4.295 5.086 0 2.848 1.898 5.085 4.295 5.085 1 0 1.898-.406 2.598-1.017v1.017c0 .102 0 .61-.7 1.22-.499.408-.999.611-1.598.611-.999 0-1.798-.61-2.397-1.424-.2-.305-.5-.508-.9-.508-.599 0-.998.508-.998 1.017 0 .305.1.508.3.712a4.855 4.855 0 0 0 3.995 2.136c2.597 0 4.695-2.035 4.795-3.662v-8.95c.1-.61-.4-1.119-.999-1.119zm-5.594 4.78c0 1.73.999 3.052 2.198 3.052 1.198 0 2.197-1.322 2.197-3.051 0-1.73-.999-3.051-2.197-3.051-1.2 0-2.198 1.322-2.198 3.05z" clip-rule="evenodd"/>
    <defs>
        <linearGradient id="a" x1="90" x2="0" y1="5.191" y2="5.191" gradientUnits="userSpaceOnUse">
            <stop stop-color="#51E3D0"/>
            <stop offset="1" stop-color="#4FE776"/>
        </linearGradient>
    </defs>
</svg>
