<svg xmlns="http://www.w3.org/2000/svg" width="41" height="41" fill="none" viewBox="0 0 41 41">
    <path fill="#fff" fill-rule="evenodd" d="M40.713 20.574c0 11.138-9.03 20.168-20.168 20.168S.377 31.712.377 20.574C.377 9.435 9.407.406 20.545.406s20.168 9.03 20.168 20.168z" clip-rule="evenodd"/>
    <mask id="a" width="41" height="41" x="0" y="0" maskUnits="userSpaceOnUse">
        <path fill="#fff" fill-rule="evenodd" d="M0 0h41v41H0V0z" clip-rule="evenodd"/>
    </mask>
    <g mask="url(#a)">
        <path fill="#6B6C6D" fill-rule="evenodd" d="M20.5 0C9.178 0 0 9.178 0 20.5S9.178 41 20.5 41C31.821 41 41 31.822 41 20.5S31.821 0 20.5 0zm0 .792c5.264 0 10.212 2.05 13.935 5.771A19.581 19.581 0 0 1 40.207 20.5a19.58 19.58 0 0 1-5.772 13.935A19.58 19.58 0 0 1 20.5 40.207a19.58 19.58 0 0 1-13.935-5.773A19.58 19.58 0 0 1 .793 20.5c0-5.264 2.05-10.213 5.772-13.936A19.581 19.581 0 0 1 20.5.792z" clip-rule="evenodd"/>
    </g>
    <path fill="#CF2027" fill-rule="evenodd" d="M39.45 20.501c0 10.466-8.484 18.95-18.95 18.95-10.465 0-18.95-8.484-18.95-18.95 0-10.465 8.485-18.95 18.95-18.95 10.466 0 18.95 8.485 18.95 18.95z" clip-rule="evenodd"/>
    <path fill="#fff" fill-rule="evenodd" d="M36.103 31.641c.273-.375.534-.76.78-1.155-5.31 3.047-17.472.233-17.472.233-9.13-1.803-13.868.62-14.37.896a19.278 19.278 0 0 0 4.207 4.237c1.557-.065 3.559.373 5.574 1.314 1.377.642 2.568 1.432 3.489 2.262a19.195 19.195 0 0 0 6.466-.327 439.12 439.12 0 0 1-5.52-3.301c-.366-.223-2.085-1.139-3.895-1.84-1.81-.702-3.712-1.189-4.41-1.3 0 0 3.528.125 6.856.984 3.154.813 8.862 3.617 12.189 3.448a19.215 19.215 0 0 0 2.785-1.915c-.666.067-3.695.243-8.834-1.306a22.163 22.163 0 0 1-1.753-.613l-5.94-2.354s14.414 3.464 19.848.737zM25.311 5.68h-3.698L20.47 2.226 19.329 5.68h-3.7l2.964 2.19-1.113 3.51 2.99-2.114 2.992 2.114-1.113-3.51 2.962-2.19zM14.498 8.184l-1.803.232-.774-1.611-.34 1.755-1.802.232 1.582.881-.322 1.781 1.325-1.218 1.59.842-.763-1.641 1.307-1.253zM7.844 11.425l-1 .41-.691-.808.073 1.06-1 .41 1.044.264.088 1.073.575-.904 1.043.24-.69-.825.558-.92zM33.138 11.425l1 .41.691-.808-.074 1.06 1 .41-1.044.264-.088 1.073-.574-.904-1.043.24.69-.825-.558-.92zM26.443 8.184l1.803.232.774-1.611.339 1.755 1.802.232-1.58.881.321 1.781-1.325-1.218-1.59.842.762-1.641-1.306-1.253zM30.229 19.838v2.717h2v2.68s-2.667 1.596-4.874-.653c-.595-.606-.926-1.42-1.09-2.255-.222-1.13-.243-2.879.83-4.471a3.645 3.645 0 0 1 2.956-1.598c.936-.014 2.132.271 3.388 1.358l1.319-2.572s-2.255-2.133-5.964-1.51c0 0-6.832.982-5.774 9.21 0 0 .641 5.85 7.02 5.964 0 0 3.095.15 5.284-1.736v-7.134H30.23z" clip-rule="evenodd"/>
    <path fill="#fff" fill-rule="evenodd" d="M21.745 13.42h-7.558c2.11.837 2.647 3.045 2.647 3.045h1.826V28.34h3.085V16.465h1.77c1.67-2.548 3.736-3.045 3.736-3.045h-5.506z" clip-rule="evenodd"/>
    <path fill="#fff" fill-rule="evenodd" d="M12.772 25.37c-.431.194-1.02.276-1.529.248-.636-.034-1.401-.163-1.797-.467v-3.497h2.329c.912 0 1.96.503 1.96 2.143 0 .74-.33 1.288-.963 1.573zm-3.326-7.682c0-.78.766-1.413 1.712-1.413s1.713.633 1.713 1.413-.767 1.414-1.713 1.414H9.446v-1.414zm5.459 2.381s2.434-1.528 1.132-4.303c0 0-1.362-2.97-5.892-2.337-.909.127-1.79.42-2.563.913-.526.336-1.075.802-1.453 1.424v11.182s1.5 1.232 4.926 1.444c0 0 4.699.48 5.888-2.548 0 0 1.812-3.708-2.038-5.775z" clip-rule="evenodd"/>
</svg>
