<svg xmlns="http://www.w3.org/2000/svg" width="81" height="26" fill="none" viewBox="0 0 81 26">
    <path fill="#000" fill-rule="evenodd" d="M44.884 9.696V1.419c0-.473-.318-.71-.875-.71h-.637V.158L46.078 0v9.853c0 .316.238.473.557.473h.716v.552h-3.9v-.552h.717c.477 0 .716-.236.716-.63zM29.448 6.87h-.478c-.238 2.286-1.353 3.469-3.103 3.469h-1.671c-.398 0-.716-.08-.716-.473V5.609h.875c1.194 0 1.75.788 1.75 2.286h.478V2.929h-.477c-.08 1.419-.717 2.128-1.672 2.128h-.954V1.274c0-.395.159-.552.557-.552h2.148c1.432 0 2.228.946 2.547 3.074h.477L28.97.17h-8.594v.552h.875c.398 0 .637.157.637.552v8.513c0 .394-.239.552-.796.552h-.716v.551h8.912l.16-4.02zm1.034-1.742l2.706 5.912h.398l2.546-5.755c.239-.473.557-.709 1.114-.709v-.473H34.38v.473c.637.079 1.114.236 1.114.63 0 .08 0 .158-.08.237l-1.67 3.863-1.83-4.02c0-.04-.02-.1-.04-.158a.604.604 0 0 1-.04-.158c0-.394.398-.394 1.034-.394v-.473h-3.342v.473c.478 0 .716.079.955.552zM43.535 7.5c0 2.286-1.512 3.626-3.263 3.626-1.83 0-3.263-1.498-3.263-3.626s1.433-3.626 3.263-3.626c1.83 0 3.263 1.419 3.263 3.626zm-3.266-3.083c1.273 0 1.91 1.025 1.91 2.996 0 2.05-.717 3.153-1.91 3.153-1.194 0-1.91-1.104-1.91-3.153 0-1.97.716-2.996 1.91-2.996zm8.357.938V8.35c0 1.734.796 2.68 2.149 2.68.875 0 1.67-.473 2.546-1.419l.16 1.34 2.307-.078V10.4h-.398c-.557 0-.796-.237-.796-.789V4.016l-2.387.079v.551c.796 0 1.194.158 1.194.71v2.522c0 1.34-.876 2.286-1.99 2.286-.875 0-1.511-.63-1.511-1.734V3.937l-2.467.079v.552c.716 0 1.193.157 1.193.788zm10.186 5.607c-1.114 0-1.83-.63-1.83-1.656l.079-4.572h-1.194v-.473c1.194-.236 1.83-1.182 1.91-2.916h.478v2.759h5.649v5.754c0 .315.24.473.557.473h.796v.552h-3.899v-.552h.716c.398 0 .637-.236.637-.63V5.444c0-.552-.319-.71-.955-.71H58.255v4.336c0 .788.397 1.182.954 1.182.796 0 1.194-.63 1.274-1.97h.477c-.08 1.813-.875 2.68-2.148 2.68zm9.466.16c1.75 0 3.263-1.34 3.263-3.626 0-2.207-1.433-3.626-3.263-3.626-1.83 0-3.263 1.498-3.263 3.626 0 2.129 1.433 3.626 3.263 3.626zm1.91-3.723c0-1.97-.636-2.995-1.91-2.995-1.193 0-1.909 1.025-1.909 2.995 0 2.05.716 3.153 1.91 3.153 1.193 0 1.91-1.103 1.91-3.153zm9.547 2.924c-.557.08-.716-.157-.716-.63V6.383c0-1.498-.796-2.365-2.149-2.365-1.034 0-1.91.473-2.546 1.498 0-.473-.08-.946-.239-1.498l-2.307.158v.473h.397c.557 0 .876.315.876.867V9.93c0 .316-.319.473-.716.473h-.398v.552h3.66v-.552h-.477c-.557 0-.717-.158-.717-.71V7.172c0-1.497.876-2.365 1.91-2.365 1.035 0 1.512.71 1.512 2.05v2.917c0 .473-.239.63-.875.63h-.319v.552h3.661v-.552l-.557-.079zm-47.902 8.35h-.955l.239-.473h4.535v.473h-.636c-.557 0-.796.158-.796.552v4.1h-.477a20.852 20.852 0 0 0-.221-.701c-.118-.36-.241-.736-.336-1.113-.796 1.261-1.751 1.813-3.024 1.813-2.944 0-5.093-2.286-5.093-5.518 0-3.39 2.467-5.675 4.934-5.675 1.114 0 1.91.552 2.705 1.103l.557-1.103h.478l.238 4.256h-.477c-.716-2.443-1.83-3.704-3.501-3.704-1.114 0-2.07.551-2.626 1.655-.398.788-.557 1.892-.557 3.39 0 3.39 1.034 5.044 3.183 5.044 1.591 0 2.626-1.024 2.626-2.6v-1.026c0-.315-.319-.473-.796-.473zM56.74 13c0 .394.398.788.796.788a.794.794 0 0 0 .796-.788.879.879 0 0 0-.876-.867c-.318.079-.716.473-.716.867zm9.789 5.523v3.31c0 .473.159.71.636.552h.717v.552h-3.66v-.552h.318c.636 0 .875-.158.875-.63v-2.917c0-1.34-.478-2.05-1.512-2.05-1.035 0-1.91.867-1.91 2.365v2.523c0 .551.16.71.716.71h.478v.55H51.569v-.55h.318c.557 0 .796-.159.796-.553v-3.39c0-1.024-.557-1.576-1.353-1.576-1.034 0-1.75 1.183-1.75 2.05v2.916c0 .394.159.552.636.552h.477v.552h-3.5v-.552h.397c.398 0 .716-.158.716-.473v-3.153c0-1.261-.477-1.892-1.353-1.892-1.034 0-1.75.946-1.75 2.286v2.68c0 .394.159.552.716.552h.398v.552h-3.501v-.158c-.319.237-.637.394-1.035.394-.716 0-1.114-.394-1.432-1.26-.796.866-1.353 1.26-2.547 1.26-1.352 0-2.148-.63-2.148-1.576 0-1.34 1.75-2.365 4.615-2.68V17.89c0-.788-.716-1.34-1.591-1.34-.876 0-1.433.394-1.433.63 0 .104.076.207.162.323.11.15.236.322.236.545 0 .394-.318.709-.796.709-.477 0-.875-.315-.875-.867 0-.946 1.273-1.892 3.024-1.892 1.512 0 2.467.788 2.467 1.813v3.705c0 .552.159.946.557.946.121 0 .29-.092.433-.17.044-.025.086-.048.124-.067l.159.158h.477c.398 0 .637-.158.637-.473v-4.493c0-.552-.239-.71-.955-.788v-.473l1.99-.08c.159.395.238.868.238 1.42.637-.946 1.273-1.42 2.308-1.42 1.034 0 1.591.474 1.91 1.577.716-1.024 1.432-1.576 2.466-1.576 1.194 0 1.99.946 1.99 2.444v3.39c0 .393.239.55.716.55h1.91c.398 0 .636-.236.636-.63v-4.256c0-.552-.318-.789-.954-.789h-.557v-.551l2.705-.08v5.913c0 .315.239.473.557.473H59.845c.397 0 .716-.158.716-.473v-4.415c0-.551-.319-.867-.876-.867h-.398v-.473l2.308-.157c.16.552.239 1.024.239 1.497.636-1.024 1.512-1.497 2.546-1.497 1.353 0 2.149.867 2.149 2.365zm-28.33 4.174c-.636 0-1.113-.473-1.113-1.182 0-1.261 1.034-1.735 3.262-2.05v.946c0 1.419-1.114 2.286-2.148 2.286zM73.13 16.62c.478-.473.876-.71 1.353-.71s.875.316.875.788c0 .395-.318.631-.557.631-.373 0-.472-.243-.555-.445-.059-.143-.109-.264-.24-.264-.16 0-.398.157-.557.315.318.394.557.788.557 1.419 0 1.261-1.194 2.365-2.706 2.365h-.796c-.796 0-1.353.157-1.353.709 0 .473.398.552 1.115.552h1.83c1.67 0 2.546.63 2.546 1.734 0 1.34-1.353 2.286-3.58 2.286-1.91 0-2.945-.71-2.945-1.576 0-.71.557-1.104 1.671-1.34-.955-.237-1.432-.631-1.432-1.34 0-.71.477-1.104 1.353-1.42-.876-.473-1.274-1.103-1.274-1.97 0-1.261 1.114-2.286 2.785-2.286.796 0 1.353.157 1.91.552zm-1.511 6.46c1.352 0 2.069.316 2.069 1.104 0 .71-.955 1.34-2.547 1.34-1.273 0-2.069-.473-2.069-1.183.08-.788.955-1.26 2.547-1.26zm-1.91-4.73c0 1.182.636 1.891 1.511 1.891.876 0 1.512-.709 1.512-1.891 0-1.104-.636-1.813-1.512-1.813-.875 0-1.512.63-1.512 1.813z" clip-rule="evenodd"/>
    <path fill="url(#a)" d="M16.87 11.096c-.478-5.44-3.501-7.883-3.501-7.883C7.24-2.462 0 1.558 0 1.558c.557 3.074 3.263 5.99 3.263 5.99 4.854 4.967 13.607 3.548 13.607 3.548z"/>
    <path fill="url(#b)" d="M4.217 14.797C1.99 16.53 0 21.89 0 21.89c5.411 2.838 10.106.394 10.106.394 6.764-2.995 6.764-10.01 6.764-10.01-9.072-1.183-12.653 2.522-12.653 2.522z"/>
    <path fill="url(#c)" d="M2.23 17.236c5.968-.236 8.991-2.601 10.583-5.202-6.127.236-8.594 2.837-8.594 2.837-.716.473-1.353 1.42-1.99 2.365z"/>
    <path fill="url(#d)" d="M0 1.477c.557 3.074 3.263 5.99 3.263 5.99 2.864 2.996 7.002 3.706 10.026 3.785 1.671-3.311 1.114-6.7 1.114-6.7a9.463 9.463 0 0 0-1.353-1.656C7.003-2.385 0 1.477 0 1.477z"/>
    <path fill="#B0B2B4" d="M15.754 23.391c.791 0 1.432-.635 1.432-1.419s-.641-1.419-1.432-1.419c-.791 0-1.432.636-1.432 1.42 0 .783.64 1.418 1.432 1.418z"/>
    <path fill="#fff" d="M15.757 23.07c.615 0 1.114-.494 1.114-1.104 0-.61-.499-1.103-1.114-1.103-.615 0-1.114.494-1.114 1.103 0 .61.498 1.104 1.114 1.104z"/>
    <path fill="#B0B2B4" fill-rule="evenodd" d="M15.199 21.19v1.576h.238v-.552h.24l.397.552h.318l-.477-.63c.159-.08.318-.237.318-.474 0-.236-.159-.473-.557-.473H15.2zm.239.708v-.473h.159c.238 0 .318.08.318.237 0 .157-.16.236-.318.236h-.16z" clip-rule="evenodd"/>
    <defs>
        <linearGradient id="a" x1="9.407" x2="17.053" y1="24.335" y2="4.707" gradientUnits="userSpaceOnUse">
            <stop stop-color="#B3B8BC"/>
            <stop offset=".729" stop-color="#DADBDF"/>
        </linearGradient>
        <linearGradient id="b" x1="15.059" x2="22.863" y1="29.48" y2="9.856" gradientUnits="userSpaceOnUse">
            <stop stop-color="#B3B8BC"/>
            <stop offset=".729" stop-color="#DADBDF"/>
        </linearGradient>
        <radialGradient id="c" cx="0" cy="0" r="1" gradientTransform="matrix(8.58271 0 0 4.21906 1.694 17.973)" gradientUnits="userSpaceOnUse">
            <stop stop-color="#A8ADB2"/>
            <stop offset=".167" stop-color="#ACB1B6"/>
            <stop offset=".348" stop-color="#B9BDC1"/>
            <stop offset=".535" stop-color="#CFD1D3"/>
            <stop offset="1" stop-color="#A1A6AC"/>
        </radialGradient>
        <radialGradient id="d" cx="0" cy="0" r="1" gradientTransform="matrix(8.58271 0 0 6.59573 1.693 17.979)" gradientUnits="userSpaceOnUse">
            <stop stop-color="#A8ADB2"/>
            <stop offset=".167" stop-color="#ACB1B6"/>
            <stop offset=".348" stop-color="#B9BDC1"/>
            <stop offset=".535" stop-color="#CFD1D3"/>
            <stop offset="1" stop-color="#A1A6AC"/>
        </radialGradient>
    </defs>
</svg>
