<svg xmlns="http://www.w3.org/2000/svg" width="96" height="44" fill="none" viewBox="0 0 96 44">
    <path fill="#132647" fill-rule="evenodd" d="M1.854 5.904C.794 6.87.248 7.794.07 8.674c-.498 2.438 1.812 4.546 3.722 6.35 2.552 2.409 3.687 4.802 3.666 6.95.02 2.15-1.114 4.543-3.666 6.952-1.91 1.803-4.22 3.911-3.722 6.35.179.88.724 1.803 1.785 2.77 4.003 3.648 10.944 7.199 19.967 5.44 9.022-1.76 12.567-8.06 12.567-8.06-4.154 3.738-9.694 5.267-14.73 5.59-5.036.323-8.345-.904-9.685-2.857-1.34-1.953-1.453-3.97.13-6.698 1.581-2.728 6.795-6.198 6.795-6.198s2.986-1.599 2.986-3.18c0-.036-.002-.072-.004-.108.002-.036.004-.072.004-.108 0-1.582-2.986-3.18-2.986-3.18s-.005-.002-.01-.007c-.248-.165-5.243-3.53-6.786-6.19-1.582-2.728-1.469-4.746-.129-6.7 1.34-1.952 4.649-3.179 9.685-2.856 5.036.323 10.576 1.852 14.73 5.59 0 0-3.545-6.3-12.567-8.06A24.588 24.588 0 0 0 17.109 0C10.37 0 5.129 2.92 1.854 5.904z" clip-rule="evenodd"/>
    <path fill="url(#a)" fill-rule="evenodd" d="M6.38 30.164S.147 32.593.068 35.276c.18.88.725 1.803 1.786 2.77 4.003 3.648 10.944 7.2 19.966 5.44 9.023-1.76 12.568-8.06 12.568-8.06-4.154 3.738-9.695 5.267-14.73 5.59-5.036.323-8.345-.904-9.685-2.857-.667-.972-1.03-1.961-1.031-3.045 0-1.093.366-2.284 1.16-3.653 1.582-2.728 6.795-6.198 6.795-6.198L6.381 30.164z" clip-rule="evenodd"/>
    <path fill="url(#b)" fill-rule="evenodd" d="M5.961 2.935a22.769 22.769 0 0 0-4.108 2.969C.79 6.87.246 7.794.067 8.674c.081 2.682 6.313 5.11 6.313 5.11l10.505 4.896c-.247-.165-5.242-3.53-6.785-6.19-.793-1.37-1.16-2.56-1.16-3.653.001-1.085.364-2.073 1.031-3.046 1.34-1.953 4.649-3.18 9.685-2.857 5.036.323 10.576 1.852 14.73 5.59 0 0-3.544-6.3-12.567-8.06a25.627 25.627 0 0 0-1.757-.28A24.308 24.308 0 0 0 17.107 0 22.5 22.5 0 0 0 5.961 2.935z" clip-rule="evenodd"/>
    <path fill="url(#c)" fill-rule="evenodd" d="M.069 8.668A3.373 3.373 0 0 0 0 9.345c0 2.155 2.06 4.04 3.791 5.673 2.527 2.386 3.664 4.756 3.666 6.889a6.615 6.615 0 0 1 0 .126c-.002 2.132-1.139 4.502-3.666 6.888C2.061 30.555.001 32.44 0 34.593c0 .223.022.45.069.678.078-2.684 6.313-5.113 6.313-5.113l10.516-4.9s2.986-1.599 2.986-3.18c0-.037-.002-.073-.004-.108.002-.036.004-.072.004-.108 0-1.582-2.986-3.18-2.986-3.18l-.01-.007L6.381 13.78S.15 11.351.069 8.669z" clip-rule="evenodd"/>
    <path fill="url(#d)" fill-rule="evenodd" d="M16.93 21.974c-.017 1.593-2.115 3.096-.753 3.096.58 0 3.182-1.657 3.182-2.99 0-1.33-3.576-3.47-4.157-3.47-1.459 0 1.74 2.132 1.727 3.364z" clip-rule="evenodd"/>
    <path fill="#132647" fill-rule="evenodd" d="M72.31 18.864c.395-.162 1.058-.242 1.989-.242.452 0 .84.076 1.164.23.324.154.558.33.704.528.145.198.257.424.333.679.077.255.12.445.128.57.008.126.008.233 0 .322v4.415c-1.213.162-1.82-.214-1.82-1.128v-1.334c.008-1.205-.048-1.94-.17-2.202-.121-.263-.501-.402-1.14-.419-.396 0-.793.073-1.189.219v3.736c.016.485-.135.803-.455.952-.32.15-.774.208-1.364.176v-9.462c.145.105.337.168.576.188.238.02.44.03.606.03.166 0 .314.087.443.261.13.174.194.46.194.856v1.625zm-34.356 2.08v4.416a4.763 4.763 0 0 1-.728-.006 2.103 2.103 0 0 1-.576-.14.742.742 0 0 1-.4-.357c-.085-.166-.124-.374-.115-.625V20.981c-.122-.59-.672-.825-1.65-.704-.51.065-.805.114-.886.146.024.138.037.3.037.485v3.324c.007.251-.033.46-.122.625a.772.772 0 0 1-.4.358 2.03 2.03 0 0 1-.57.14c-.202.02-.445.021-.728.005v-5.907c0-.526.845-.809 2.535-.85 2.394-.064 3.595.716 3.603 2.342zm-12.228.813c.137-.097.361-.162.673-.194.311-.032.602-.05.873-.055.271-.003.512-.06.722-.17.21-.108.311-.28.303-.515 0-.21-.165-.384-.497-.522-.46-.194-.91-.21-1.347-.048-.606.218-.849.72-.727 1.504zm.061 1.274c0 .25.125.439.376.564.25.125.568.19.953.194.384.004.76-.012 1.128-.049.368-.036.715-.078 1.043-.127.328-.049.515-.073.564-.073.032.704-.107 1.201-.418 1.492-.312.291-.937.437-1.875.437-1.294 0-2.244-.263-2.85-.788-.607-.526-.91-1.436-.91-2.73 0-.647.083-1.195.248-1.644.166-.448.409-.79.728-1.025.32-.234.675-.4 1.068-.497a5.778 5.778 0 0 1 1.377-.146c1.002 0 1.74.213 2.213.637.474.425.71 1.102.71 2.032 0 .356-.069.641-.206.855a1.002 1.002 0 0 1-.54.431c-.222.073-.49.125-.8.158a6.423 6.423 0 0 1-.922.03 6.415 6.415 0 0 0-.983.043c-.352.04-.653.109-.904.206zM44.3 20.35v1.722c.008 1.067.008 1.601 0 1.601h-.012a5.504 5.504 0 0 1-.213.049 4.526 4.526 0 0 1-.406.054c-.194.02-.374.024-.54.012a2.693 2.693 0 0 1-.558-.109 1.392 1.392 0 0 1-.522-.273 1.397 1.397 0 0 1-.357-.521 2.02 2.02 0 0 1-.146-.801c0-.323.04-.605.121-.843.081-.239.186-.425.316-.558a1.5 1.5 0 0 1 .46-.322c.178-.08.35-.129.516-.145a3.821 3.821 0 0 1 .995.049c.125.024.24.052.346.084zm.454-4.172a.972.972 0 0 1-.455-.17v2.948c-.266-.194-.711-.291-1.334-.291a4.42 4.42 0 0 0-.934.097c-.3.065-.594.178-.886.34a2.85 2.85 0 0 0-.758.606 2.705 2.705 0 0 0-.515.94c-.13.385-.194.82-.194 1.304 0 1.254.27 2.15.812 2.688.542.538 1.436.806 2.681.806.396 0 .752-.02 1.068-.06.315-.04.566-.085.752-.134.186-.048.356-.115.51-.2a1.75 1.75 0 0 0 .315-.206c.056-.053.12-.122.188-.207l.115-.139v-7.157c0-.324-.038-.57-.115-.74-.077-.17-.184-.277-.322-.322a1.396 1.396 0 0 0-.43-.066c-.15 0-.316-.013-.498-.037zm4.999 6.608a4.02 4.02 0 0 1-.104-.674v-.097a4.58 4.58 0 0 1-.006-.4c.004-.105.035-.253.091-.443.057-.19.138-.344.243-.46.105-.118.27-.221.497-.31.227-.09.502-.134.825-.134.178 0 .342.017.492.049.15.032.276.075.382.127.105.053.2.12.285.2.085.081.153.16.206.237.053.077.097.168.133.273.037.105.065.196.085.273.02.077.035.168.043.273.008.105.012.184.012.236v.322c0 .097-.004.186-.012.267-.008.08-.04.202-.097.364-.057.161-.134.299-.23.412a1.24 1.24 0 0 1-.45.303c-.202.09-.444.134-.727.134-.364 0-.664-.037-.898-.11a.985.985 0 0 1-.528-.351 1.497 1.497 0 0 1-.242-.491zm-1.93-.98c.003.082.01.146.018.195.024.315.054.588.09.819.037.23.092.47.164.721.073.251.166.461.28.631.113.17.26.336.442.498.182.161.395.289.637.382.243.093.538.168.886.224.347.057.744.085 1.189.085.428 0 .814-.048 1.158-.146.344-.097.623-.216.837-.357.214-.142.4-.318.558-.528.158-.21.273-.404.346-.582.073-.178.13-.38.17-.607.04-.226.064-.392.072-.497.008-.105.013-.223.013-.352l.006-.249a5.786 5.786 0 0 0-.03-.8 2.656 2.656 0 0 0-.086-.498c-.04-.141-.099-.31-.175-.503a1.957 1.957 0 0 0-.286-.504 3.103 3.103 0 0 0-.43-.43 2.445 2.445 0 0 0-.595-.364 3.658 3.658 0 0 0-.794-.23 5.579 5.579 0 0 0-1.007-.086c-.518 0-.979.063-1.383.188-.404.126-.726.282-.964.467a2.56 2.56 0 0 0-.6.668 3.016 3.016 0 0 0-.34.71 3.963 3.963 0 0 0-.14.672c-.028.235-.04.393-.036.474zm13.04-2.92c-.013-.154-.015-.239-.007-.255h-2.122c-.316 0-.6.04-.856.121a2.094 2.094 0 0 0-.624.304c-.162.12-.3.263-.413.424a2.147 2.147 0 0 0-.376.916 3.307 3.307 0 0 0-.048.552V24.2c0 .3.064.528.194.686.129.157.277.252.443.285.165.032.367.079.606.14.239.06.43.143.576.248v-3.882c0-.307.025-.55.073-.728a.698.698 0 0 1 .291-.412c.146-.097.311-.158.498-.182.185-.025.448-.037.788-.037.235 0 .427-.048.576-.145a.688.688 0 0 0 .297-.389 2.309 2.309 0 0 0 .103-.898zm3.295 3.095v1.722c.129.04.268.073.418.097.15.025.338.045.564.061.227.016.437-.008.631-.073s.38-.158.558-.279c.178-.121.32-.315.425-.582.105-.267.157-.586.157-.959 0-.307-.05-.574-.151-.8a1.55 1.55 0 0 0-.352-.522 1.28 1.28 0 0 0-.528-.273c-.218-.06-.4-.097-.546-.109a2.914 2.914 0 0 0-.546.018c-.218.025-.351.04-.4.049a3.141 3.141 0 0 0-.218.048h-.012c-.008 0-.008.534 0 1.602zm0 6.071c-.146-.105-.338-.168-.577-.188-.238-.02-.44-.03-.606-.03-.166 0-.314-.087-.443-.261-.13-.174-.194-.46-.194-.855V19.56c.008-.008.046-.054.115-.139a1.53 1.53 0 0 1 .188-.2c.057-.049.162-.117.316-.206.153-.09.323-.158.509-.207a6.31 6.31 0 0 1 .752-.133c.316-.04.671-.06 1.068-.06 1.245 0 2.139.268 2.68.806.542.538.813 1.433.813 2.687 0 .606-.097 1.132-.29 1.577-.195.445-.456.787-.783 1.025a3.41 3.41 0 0 1-1.044.522c-.368.109-.758.163-1.17.163-.558 0-1.003-.056-1.335-.17v2.827zm15.891-9.058c.13.174.194.46.194.856v4.391c.016.485-.135.803-.455.952-.32.15-.774.209-1.364.176v-6.854c.145.106.337.168.576.188.238.02.44.03.607.03.165 0 .313.088.442.261zm-1.394-1.054a.965.965 0 0 1-.28-.691c0-.267.096-.496.286-.686a.935.935 0 0 1 .685-.285c.267 0 .496.095.686.285.19.19.285.419.285.686a.935.935 0 0 1-.285.685.935.935 0 0 1-.686.285.964.964 0 0 1-.691-.28zm9.522 7.422v-4.416c-.008-1.625-1.21-2.406-3.603-2.341-1.69.04-2.536.323-2.536.85v5.907c.283.016.526.014.728-.006.202-.02.392-.067.57-.14a.772.772 0 0 0 .4-.357c.09-.166.13-.375.122-.625V20.91c0-.186-.012-.348-.036-.485.08-.033.376-.081.885-.146.979-.121 1.529.113 1.65.704v3.25c-.008.251.03.46.115.625a.742.742 0 0 0 .4.358c.183.073.375.12.577.14.202.02.445.022.728.006zm6.054-3.202c-.033.04-.08.09-.14.146-.06.056-.196.131-.406.224-.21.093-.429.14-.655.14-.397 0-.718.048-.965.145-.246.097-.37.235-.37.413 0 .21.09.368.267.473.178.105.534.157 1.068.157.218 0 .386-.002.503-.006a.71.71 0 0 0 .328-.09.773.773 0 0 0 .212-.158c.04-.049.075-.152.103-.31.028-.157.044-.31.049-.455.004-.145.006-.372.006-.679zm-3.847-1.83a.539.539 0 0 0-.012-.096 2.148 2.148 0 0 1 .03-.57c.02-.106.061-.225.122-.358.06-.134.141-.247.243-.34.1-.093.238-.172.412-.237.174-.064.378-.097.613-.097h.34a8.89 8.89 0 0 1 .648 0c.223.008.445.018.667.03.223.013.439.047.65.104.21.056.41.125.6.206.19.08.364.196.522.346.157.15.295.321.412.515.117.194.208.433.273.716.065.283.097.603.097.958v1.335c0 .331-.036.633-.11.904a2.36 2.36 0 0 1-.272.66c-.11.17-.245.32-.406.45-.162.129-.314.224-.455.285a2.44 2.44 0 0 1-.492.145c-.186.037-.33.059-.43.067a4.56 4.56 0 0 1-.358.012h-1.674c-.025 0-.06-.002-.11-.006a4.745 4.745 0 0 1-.272-.037c-.134-.02-.261-.05-.383-.09a1.963 1.963 0 0 1-.406-.2 1.574 1.574 0 0 1-.382-.328 1.597 1.597 0 0 1-.267-.491 1.994 1.994 0 0 1-.11-.68c0-.444.057-.819.17-1.122.114-.303.286-.538.516-.703.23-.166.487-.281.77-.346a4.705 4.705 0 0 1 1.032-.097c.703 0 1.182-.047 1.437-.14.255-.093.382-.236.382-.43 0-.275-.265-.461-.794-.558a6.115 6.115 0 0 0-1.686-.061c-.595.057-1.034.141-1.317.255z" clip-rule="evenodd"/>
    <defs>
        <linearGradient id="a" x1="25.515" x2="24.308" y1="34.218" y2="22.732" gradientUnits="userSpaceOnUse">
            <stop stop-color="#F8A31B"/>
            <stop offset="1" stop-color="#570004"/>
        </linearGradient>
        <linearGradient id="b" x1="-.629" x2="-.629" y1="4.739" y2="19.518" gradientUnits="userSpaceOnUse">
            <stop stop-color="#00ADEE"/>
            <stop offset="1" stop-color="#181C62"/>
        </linearGradient>
        <linearGradient id="c" x1="13.32" x2="-1.484" y1="12.066" y2="12.066" gradientUnits="userSpaceOnUse">
            <stop stop-color="#DD1A21"/>
            <stop offset="1" stop-color="#570004"/>
        </linearGradient>
        <linearGradient id="d" x1="19.307" x2="13.981" y1="24.204" y2="15.722" gradientUnits="userSpaceOnUse">
            <stop stop-color="#fff" stop-opacity=".01"/>
            <stop offset="1" stop-color="#FEFEFE"/>
        </linearGradient>
    </defs>
</svg>
