<svg xmlns="http://www.w3.org/2000/svg" width="62" height="19" fill="none" viewBox="0 0 62 19">
    <path fill="#050505" d="M38.202 10.466c.194-2.014.383-4.023.577-6.06-.11.176-2.38 5.945-2.392 6.06h1.815zm-4.118 8.032h-6.666L34.916.024h9.33c.055.11-.638 18.254-.655 18.463h-6.566c.139-1.024.278-2.042.416-3.072h-2.353l-1.004 3.083zM53.674 8.035c.139 0 .255.005.377 0 .522-.017 1.41-.044 1.654-.44a.726.726 0 0 0 .084-.16c.15-.385.671-2.307.743-2.962.05-.44.2-1.172-.327-1.277-.455-.055-.927-.055-1.404-.055-.378 1.635-.75 3.254-1.127 4.894zm-8.886 10.459C46.215 12.373 47.636 6.262 49.062.13h.178c.976-.027 1.959-.066 2.935-.088 1.2-.028 2.398-.066 3.597-.022.566.022 1.132.039 1.693.077.938.066 1.87.17 2.775.446.194.06.383.138.571.215.639.27.983.765 1.116 1.425.094.48.094.958.017 1.432a24.573 24.573 0 0 1-1.088 4.222 5.262 5.262 0 0 1-.638 1.271c-.483.71-1.15 1.173-1.937 1.481-.566.22-1.16.352-1.749.485-.638.143-1.293.126-1.942.154-.539.022-1.077.027-1.615.038-.05 0-.095.006-.15.011-.533 2.406-1.06 4.806-1.587 7.211h-6.45v.006zM10.961 18.5H0L4.296.032h6.41c-.533 2.301-1.06 4.591-1.593 6.881-.533 2.29-1.065 4.585-1.604 6.897.378.022.738.006 1.1.011h3.279c-.31 1.575-.621 3.122-.927 4.68zM26.962 13.781c-.339 1.596-.672 3.176-1.01 4.762H12.465c.006-.06 0-.121.011-.17l.966-4.465a.512.512 0 0 1 .039-.121h13.48v-.006zM28.383 6.897c-.34 1.597-.672 3.176-1.01 4.762H13.885c.005-.06 0-.121.01-.17.323-1.487.645-2.979.966-4.465a.512.512 0 0 1 .04-.121h13.48v-.006zM29.883.004c-.339 1.596-.672 3.176-1.01 4.762H15.386c.006-.061 0-.122.017-.171L16.369.13c.01-.039.027-.083.038-.122h13.476V.004z"/>
</svg>
