<svg xmlns="http://www.w3.org/2000/svg" width="107" height="26" fill="none" viewBox="0 0 107 26">
    <path fill="url(#a)" fill-rule="evenodd" d="M91.797 6.987h-1.198v1.131h1.198v-1.13zm-50.53.031h1.197V8.15h-1.198V7.02zm-6.258 6.91l-2.328-6.91h-1.976v8.701h1.105V7.853h.21l2.662 7.866h.661l2.668-7.866h.198v7.866h1.105v-8.7h-1.976l-2.328 6.91zM42.453 9h-1.174v6.712h1.174V8.999zm3.13 1.167c.234-.362.747-.525 1.5-.525 1.303 0 1.723.484 1.736 1.592h1.093c0-1.33-.556-2.31-2.829-2.31-1.674 0-2.384.526-2.78 1.295-.16.35-.234.945-.277 1.382-.012.21-.012.484-.012.81 0 .636.012.969.105 1.505.092.537.234.834.537 1.196.407.472 1.21.758 2.42.758 2.28 0 2.83-.997 2.83-2.298H48.81c-.012 1.097-.432 1.58-1.735 1.58-1.056 0-1.476-.32-1.71-.892-.106-.25-.161-.734-.174-1.12-.012-.186-.012-.436-.012-.734 0-.595.012-.892.068-1.33.055-.46.16-.658.333-.91zm7.832-.933c.29-.134.685-.286 1.013-.286.13-.011.265-.023.407-.023.142 0 .302.009.482.019l.074.004-.08.793-.115-.006c-.159-.01-.292-.017-.398-.017-.142 0-.29.012-.42.023-.247.024-.555.1-.803.21a4.046 4.046 0 0 0-.512.263l-.12.067c-.13.072-.303.17-.343.195v5.271h-1.161V9.04h.926l.117.694a2.42 2.42 0 0 1 .303-.163c.105-.064.457-.274.63-.338zm8.587.985c-.161-.35-.464-.746-.896-.944-.432-.199-1.068-.35-1.896-.35-.408 0-.778.035-1.106.099-.63.134-1.037.309-1.358.67-.303.35-.445.648-.537 1.178-.093.537-.105.881-.105 1.528 0 .31 0 .583.012.793.037.409.117 1.02.278 1.365.173.35.488.746.908.944.432.199 1.08.35 1.908.35a5.55 5.55 0 0 0 1.093-.099c.63-.134 1.056-.309 1.359-.659.303-.361.445-.659.537-1.195.105-.537.105-.869.105-1.505 0-.32 0-.594-.012-.81-.012-.42-.124-1.015-.29-1.365zm-1.262 4.386c.198-.256.284-.455.34-.892.05-.432.062-.746.074-1.359 0-.297 0-.548-.012-.735-.013-.384-.068-.868-.173-1.12-.235-.57-.68-.891-1.748-.891-.822 0-1.266.198-1.569.548-.117.146-.222.437-.278.67-.08.42-.092.904-.092 1.528 0 .31 0 .56.012.747.012.361.068.857.173 1.12.247.57.68.88 1.735.88.772 0 1.273-.158 1.538-.496zm7.88-4.981c-.802-.496-1.555-.747-2.247-.747-1.464 0-2.057.473-2.409 1.219-.142.338-.197.945-.235 1.405-.012.222-.012.508-.012.857 0 .694.025 1.044.093 1.58.092.537.222.794.488 1.132.37.46 1.068.67 2.174.647.673 0 1.34-.262 2.013-.624 0 1.802-.235 2.251-2.026 2.251a18.07 18.07 0 0 1-1.661-.076l-.117.694c.778.1 1.463.152 2.056.152 2.36 0 2.921-.735 2.921-3.143V8.999h-.92l-.117.624zm-1.916 5.347c.463 0 1.043-.187 1.766-.572h-.006v-4.18c-.698-.41-1.279-.607-1.766-.607-.834 0-1.347.198-1.57.682-.104.25-.184.46-.221.857-.038.385-.038.688-.038 1.195 0 .286 0 .537.013.724.018.355.068.828.16 1.078.254.548.649.823 1.662.823zm21.54-5.543c-.34-.396-1.001-.571-2.039-.548-.58.012-1.278.262-2.081.746-.328-.524-1.038-.77-2.119-.746-.568.012-1.235.25-2 .694L79.897 9h-.92v6.712h1.161v-5.516c.673-.385 1.198-.583 1.606-.583 1.593.011 1.686.682 1.686 2.076v4.023h1.013V11.69c0-.67-.056-1.167-.142-1.481.698-.397 1.247-.595 1.661-.595.933.052 1.359.198 1.538.758.117.385.13.67.13 1.318v4.023h1.173v-4.087c0-.549 0-.834-.093-1.266-.074-.437-.203-.67-.469-.933zm2.37-.467h1.174v6.712h-1.174V8.96zm6.132-.081c1.093-.023 1.791.163 2.162.548.278.262.426.496.487.933.093.431.093.717.093 1.265v4.088h-1.16V11.69c0-1.394-.118-2.065-1.841-2.076-.451 0-1.044.198-1.767.583v5.516h-1.16V9.001h.92l.104.583c.834-.454 1.544-.693 2.162-.705zm9.322.12l-.105.624c-.802-.495-1.556-.746-2.248-.746-1.463 0-2.056.472-2.408 1.219-.142.338-.198.944-.235 1.405-.012.222-.012.507-.012.857 0 .694.024 1.044.092 1.58.093.537.223.793.488 1.132.371.46 1.069.67 2.174.647.673 0 1.34-.262 2.014-.624 0 1.802-.235 2.25-2.026 2.25a18.12 18.12 0 0 1-1.662-.075l-.117.694c.778.1 1.464.152 2.057.152 2.359 0 2.921-.735 2.921-3.143V8.999h-.933zm-2.016 5.933c.463 0 1.044-.187 1.767-.572h-.007v-4.18c-.698-.409-1.278-.607-1.766-.607-.834 0-1.346.198-1.569.682-.105.25-.185.46-.222.857-.037.385-.037.688-.037 1.196 0 .285 0 .536.012.723.019.355.068.828.161 1.078.253.549.648.823 1.661.823zm-27.73-5.524c-.846-.513-1.636-.775-2.371-.775-1.538 0-2.162.49-2.539 1.265-.154.35-.21.98-.247 1.458-.012.233-.012.53-.012.892 0 .723.025 1.085.099 1.639.099.554.234.822.512 1.172.39.478 1.124.694 2.292.67.704 0 1.414-.268 2.118-.641l.124.554h1.043V8.761h-.907l-.112.647zm-3.758 4.71c.265.565.68.851 1.748.851.481 0 1.093-.192 1.858-.595v-4.332c-.734-.426-1.346-.63-1.858-.63-.871 0-1.415.21-1.65.711a2.714 2.714 0 0 0-.234.893c-.043.396-.043.705-.043 1.236 0 .297 0 .554.012.746.012.373.068.863.167 1.12z" clip-rule="evenodd"/>
    <path fill="url(#b)" fill-rule="evenodd" d="M12.74 0C5.703 0 0 5.71 0 12.751c0 1.237.176 2.425.503 3.552l.006-.006S4.94 9.824 5.958 7.909c0 0 2.077-3.867 2.319-4.4 0 0 .648-1.345 1.792-.854 0 0 .03.018.085.06.188.152.745.733.472 2.236 0 0-.775 8.552.406 12.376 0 0 .151.752.478 1.043.2.157.466.139.8-.328 0 0 1.828-1.709 4.758-8.43 0 0 .69-1.951 1.587-1.994 0 0 .393-.048.745.255.302.242.58.733.58 1.715 0 0 .691 5.49 2.44 7 0 0 .4.733-.284.733-.084 0-.187-.06-.314-.164-.497-.4-1.278-1.557-1.908-2.587 0 0-1.18-2.237-1.223-2.443v-.006c-.048-.024-.17-.018-.381.43 0 0-3.094 7.819-6.061 8.303 0 0-1.048.352-2.065-.49-.49-.4-.98-1.08-1.338-2.219 0 0-.926-4.509-.817-8.642-.327.624-3.706 7.073-5.916 10.17 0 0-.006.024-.024.06a12.716 12.716 0 0 0 10.644 5.74c7.036 0 12.74-5.71 12.74-12.752C25.479 5.71 19.774 0 12.739 0z" clip-rule="evenodd"/>
    <defs>
        <linearGradient id="a" x1="81.039" x2="83.489" y1="23.58" y2="1.024" gradientUnits="userSpaceOnUse">
            <stop stop-color="#32B5E5"/>
            <stop offset="1" stop-color="#20E421"/>
        </linearGradient>
        <linearGradient id="b" x1="10.989" x2="28.733" y1="29.933" y2="14.404" gradientUnits="userSpaceOnUse">
            <stop stop-color="#22E320"/>
            <stop offset="1" stop-color="#30B6E7"/>
        </linearGradient>
    </defs>
</svg>
