<svg xmlns="http://www.w3.org/2000/svg" width="70" height="26" fill="none" viewBox="0 0 70 26">
    <path fill="#000" fill-rule="evenodd" d="M0 20.94V5.93h2.835l5.75 9.35V5.93h2.997v15.01H8.828l-5.831-9.515v9.514H0zm27.876 0V8.8h-3.483v-2.87h9.882v2.871h-3.402V20.94h-2.997zm-11.46-2.707h6.965v2.707H13.66V5.93H23.3v2.871h-6.884v3.117h5.994v3.034h-5.994v3.281z" clip-rule="evenodd"/>
    <path fill="#7ABE23" fill-rule="evenodd" d="M46.836 20.943V5.933h2.834l5.75 9.35v-9.35h2.998v15.01h-2.754l-5.832-9.514v9.514h-2.996zM63.004 20.943V8.804h-3.482v-2.87h9.88v2.87h-3.4v12.14h-2.998zM45.582 17.962h-6.965V14.6h5.993v-2.952h-5.993V8.448h6.965V5.659h-7.937V0h-.567v26h.567v-5.331h7.937v-2.707z" clip-rule="evenodd"/>
</svg>
