<svg xmlns="http://www.w3.org/2000/svg" width="90" height="25" fill="none" viewBox="0 0 90 25">
    <path fill="#170C11" fill-rule="evenodd" d="M85.226 1.323c.28-.279.616-.419 1.01-.419.391 0 .727.14 1.006.419.279.28.418.616.418 1.009 0 .393-.139.73-.417 1.008a1.373 1.373 0 0 1-1.008.417c-.394 0-.731-.139-1.01-.416a1.372 1.372 0 0 1-.417-1.01c0-.392.14-.729.418-1.008zm.15 2.488c.264.152.55.227.86.227.306 0 .593-.076.858-.228a1.69 1.69 0 0 0 .626-.625c.153-.263.229-.548.229-.855A1.705 1.705 0 0 0 87.09.85a1.678 1.678 0 0 0-.856-.231c-.307 0-.592.077-.857.229-.265.153-.474.36-.627.625a1.67 1.67 0 0 0-.231.857c0 .307.076.592.23.857.152.263.36.471.626.624z" clip-rule="evenodd"/>
    <path fill="#170C11" fill-rule="evenodd" d="M85.846 1.656h.34c.175 0 .296.02.365.06.07.042.103.113.103.214 0 .097-.035.168-.106.212-.072.045-.184.067-.339.067h-.363v-.553zm.001.807h.177c.114 0 .204.031.273.092.068.061.16.196.276.403l.161.288h.363l-.222-.358a2.251 2.251 0 0 0-.233-.324.567.567 0 0 0-.196-.142.584.584 0 0 0 .379-.163.48.48 0 0 0 .147-.356.47.47 0 0 0-.083-.266.466.466 0 0 0-.224-.178c-.093-.035-.252-.053-.478-.053h-.637v1.84h.297v-.783z" clip-rule="evenodd"/>
    <path fill="#006592" fill-rule="evenodd" d="M6.571 5.492c-2.09 0-4.156 1.618-4.704 3.686L.136 14.825c-.303 1.142-.094 2.287.573 3.14.64.815 1.642 1.242 2.755 1.242h40.878a7.314 7.314 0 0 1 .325-2.514l3.13-10.156c.111-.359.255-.705.414-1.045H6.571zM83.743 5.492c.038.818-.023 1.604-.291 2.458l-2.998 9.933a8.943 8.943 0 0 1-.556 1.324H82.875c2.137 0 4.773-1.698 5.332-3.81l1.654-5.398c.309-1.166.097-2.331-.583-3.199-.651-.83-1.675-1.308-2.808-1.308h-2.727z" clip-rule="evenodd"/>
    <mask id="a" width="41" height="25" x="44" y="0" maskUnits="userSpaceOnUse">
        <path fill="#fff" fill-rule="evenodd" d="M44.228 0h39.88v24.67h-39.88V0z" clip-rule="evenodd"/>
    </mask>
    <g mask="url(#a)">
        <path fill="#170C11" fill-rule="evenodd" d="M84.101 5.605c-.055-1.195-.422-2.317-1.104-3.245C81.897.86 79.857 0 77.813 0h-21.35c-3.409 0-6.895 2.39-8.4 5.605a8.34 8.34 0 0 0-.414 1.045l-3.084 10.038a7.168 7.168 0 0 0-.33 2.486c.056 1.172.417 2.268 1.085 3.178 1.083 1.474 2.852 2.319 4.859 2.319h20.087l1.313-.018c3.395 0 7.103-2.32 8.703-5.479.214-.427.399-.868.542-1.322l2.941-9.721a7.324 7.324 0 0 0 .336-2.526z" clip-rule="evenodd"/>
    </g>
    <path fill="#CE232E" fill-rule="evenodd" d="M64.787 7.274H55.02a.088.088 0 0 0-.084.062l-3.109 9.937a.088.088 0 0 0 .084.115h4.657a.088.088 0 0 0 .084-.061l.854-2.809a.088.088 0 0 0-.084-.114h-2.054a.087.087 0 0 1-.084-.114l1.266-3.923a.088.088 0 0 1 .084-.061h7.148c.06 0 .102.057.085.113l-2.125 6.912c-.88 2.8-3.639 5.093-6.44 5.093H50.21c-2.801 0-4.373-2.294-3.492-5.093l3.2-10.185c.88-2.801 3.84-4.894 6.64-4.894h9.777c.06 0 .102.057.084.114l-1.548 4.847a.089.089 0 0 1-.084.061zM73.487 17.401h-4.793a.087.087 0 0 1-.083-.113l3.116-9.961a.087.087 0 0 1 .083-.062h4.755c.06 0 .101.058.084.115l-3.079 9.96a.087.087 0 0 1-.083.061zm4.636-15.16h-4.685c-2.883 0-5.916 2.125-6.82 5.008l-3.05 9.915c-.906 2.881.647 5.24 3.53 5.24h4.686c2.88 0 6.058-2.374 6.964-5.254l3.011-9.876c.904-2.883-.755-5.034-3.636-5.034z" clip-rule="evenodd"/>
    <path fill="#FFFFFE" fill-rule="evenodd" d="M30.57 16.383a.089.089 0 0 1-.084.062l-1.875.003a.088.088 0 0 1-.084-.114l.56-1.817a.088.088 0 0 0-.082-.113c-1.052-.06-1.65-.977-1.307-2.063l1.231-4.03a.089.089 0 0 1 .084-.06h1.86c.06 0 .102.057.084.113a338.98 338.98 0 0 0-1.215 4h2.068c.133-.446 1.11-3.617 1.246-4.052a.088.088 0 0 1 .084-.061h1.834a.09.09 0 0 1 .085.115l-1.226 3.975c-.347 1.104-1.483 2.016-2.59 2.049a.087.087 0 0 0-.081.06l-.592 1.933zM40.566 10.28c-1.126 0-2.333.92-2.688 2.045l-1.217 4.016a.088.088 0 0 0 .083.114h1.864a.087.087 0 0 0 .083-.06c.135-.43 1.034-3.344 1.255-4.028.396 0 1.472 0 2.024-.004-.273.866-1.045 3.434-1.218 3.98a.087.087 0 0 0 .084.112h1.905a.087.087 0 0 0 .084-.06l1.237-4.07c.341-1.086-.235-1.982-1.288-2.043-.057-.003-2.208-.003-2.208-.003zM24.484 12.363H22.43l.634-2.092h2.068l-.647 2.092zm1.3-4.112h-2.118c-1.125 0-2.334.922-2.688 2.046l-1.844 6.023a.087.087 0 0 0 .084.114h1.863a.087.087 0 0 0 .083-.06l.762-2.39a.088.088 0 0 1 .083-.06h1.898c.058 0 .1.056.085.112l-.718 2.284a.088.088 0 0 0 .084.114l1.876.002a.087.087 0 0 0 .083-.061l1.869-6.078c.354-1.124-.277-2.046-1.403-2.046zM10.031 12.367H7.976l.634-2.092h2.068l-.647 2.092zm1.276-4.116H7.225a.087.087 0 0 0-.083.061l-2.46 8.008a.088.088 0 0 0 .084.114h1.86a.089.089 0 0 0 .084-.062l.605-1.925a.088.088 0 0 1 .084-.061h1.98c1.126 0 2.335-.92 2.689-2.045l.642-2.044c.353-1.125-.278-2.046-1.403-2.046zM37.886 10.651h-2.35l.725-2.392h2.365l-.74 2.392zM11.824 16.452l2.529-8.15a.09.09 0 0 1 .085-.063h1.868c.06 0 .102.057.085.115l-1.802 5.92a.089.089 0 0 0 .085.115h1.797a.089.089 0 0 0 .084-.062l.613-1.92a.088.088 0 0 1 .084-.062h1.868c.06 0 .103.058.085.115l-1.235 3.93a.089.089 0 0 1-.084.062h-6.094.032z" clip-rule="evenodd"/>
</svg>
