<svg xmlns="http://www.w3.org/2000/svg" width="102" height="21" fill="none" viewBox="0 0 102 21">
    <path fill="#000" fill-rule="evenodd" d="M12.232 11.284h8.506v1.442H10.731v-9.63h1.501v8.188zM9.48 3.633a1.987 1.987 0 0 0-.577-.374 1.755 1.755 0 0 0-.701-.14H0v9.603h1.501v-3.46a1.808 1.808 0 0 0 .306.027H8.2c.25 0 .484-.046.701-.14a1.98 1.98 0 0 0 .577-.374 1.656 1.656 0 0 0 .528-1.222V4.855a1.649 1.649 0 0 0-.528-1.222zm-.974 3.92c0 .08-.03.15-.09.207a.3.3 0 0 1-.215.087H1.806a.3.3 0 0 1-.216-.087.276.276 0 0 1-.09-.207V4.855c0-.08.03-.15.09-.208a.302.302 0 0 1 .216-.086H8.2c.083 0 .154.029.215.086.06.059.09.128.09.208v2.698zm22.546-3.94a1.815 1.815 0 0 0-1.279-.508H23.38a1.836 1.836 0 0 0-1.28.508c-.166.16-.296.345-.388.554-.093.21-.14.434-.14.674v7.881h1.502V9.356h7.005v3.366h1.501v-7.88c0-.24-.046-.466-.139-.675a1.739 1.739 0 0 0-.389-.554zm-7.978 4.302h7.005V4.843c0-.08-.03-.15-.09-.207a.302.302 0 0 0-.215-.087h-6.394a.302.302 0 0 0-.216.087.276.276 0 0 0-.09.207v3.072zm14.831 4.81V9.12l4.615-6.01h-1.78l-3.585 4.38-3.6-4.38h-1.765l4.614 6.01v3.606h1.501zm13.628-9.483c.217.089.41.214.577.374.167.16.296.345.389.555.093.209.14.434.14.674v.56h-1.502v-.56c0-.08-.03-.15-.09-.207a.301.301 0 0 0-.216-.087h-6.393a.303.303 0 0 0-.216.087.277.277 0 0 0-.09.207v2.057c0 .08.03.149.09.207.06.058.132.087.216.087h6.393a1.838 1.838 0 0 1 1.279.507c.167.16.296.346.389.555.093.209.14.434.14.674v2.057c0 .24-.047.465-.14.675-.093.209-.222.394-.39.554a1.82 1.82 0 0 1-1.278.507h-6.393a1.828 1.828 0 0 1-1.279-.507 1.735 1.735 0 0 1-.39-.554 1.648 1.648 0 0 1-.138-.675v-.561h1.5v.56c0 .081.03.15.09.208a.3.3 0 0 0 .217.087h6.393c.084 0 .155-.029.215-.087a.277.277 0 0 0 .091-.207V8.932c0-.08-.03-.149-.09-.207a.299.299 0 0 0-.216-.087h-6.393a1.825 1.825 0 0 1-1.279-.507 1.733 1.733 0 0 1-.39-.554 1.649 1.649 0 0 1-.138-.675V4.845c0-.24.046-.465.139-.674.092-.21.222-.395.389-.555a1.81 1.81 0 0 1 1.279-.508h6.393c.25 0 .484.045.702.134zm12.016 7.747V4.845c0-.24-.047-.466-.14-.675a1.74 1.74 0 0 0-.389-.554 1.817 1.817 0 0 0-1.279-.508h-6.393a1.838 1.838 0 0 0-1.279.508c-.167.16-.296.345-.389.554a1.65 1.65 0 0 0-.139.675v6.144c0 .24.047.465.139.674.093.21.222.395.39.555a1.82 1.82 0 0 0 1.278.507h6.393a1.834 1.834 0 0 0 1.28-.507c.166-.16.296-.345.389-.555.092-.209.139-.434.139-.674zm-1.593.208a.276.276 0 0 0 .09-.207V4.846c0-.08-.03-.149-.09-.207a.3.3 0 0 0-.215-.087h-6.394a.3.3 0 0 0-.215.087.276.276 0 0 0-.09.207v6.144c0 .08.03.15.09.207.06.058.131.087.215.087h6.394a.3.3 0 0 0 .215-.087zm12.574-8.085h-1.501v7.693L66.3 3.112h-1.78v9.617h1.502V5.035l6.727 7.694h1.779V3.112zm-52.412 12.46h-.37v-.621h.37v.621zm22.237 0h.37v-.621h-.37v.621zm21.724 0h-.37v-.621h.37v.621zm-6.698-.658V18.95h.362V14.74h-.362v.173zm-40.356.973h.977c.51 0 .959.378.959 1.007v2.052h-.361v-2.052c0-.405-.246-.68-.598-.68h-.977v.932h-.003v1.8h-.36V15.887h.363zm10.912 0c-.635 0-1.14.428-1.14 1.168v.467c0 .953.235 1.424 1.12 1.424h1.094v-.325h-1.09c-.587 0-.752-.304-.76-1.035H31.107v-.531c0-.753-.424-1.168-1.17-1.168zm-.78 1.407h1.588v-.262c-.007-.531-.277-.812-.808-.812-.477 0-.77.322-.78.811v.263zm6.57-1.403H34.67c-.72 0-.968.698-.968 1.14v.916c0 .63.449 1.003.957 1.003h.964c-.01.739-.179 1.033-.76 1.033h-.92l-.008.002h-.006v-.003h-.158v.325h.158v-.003l.006.001.004.001.005.001h.004l.002.001h.918c.87 0 1.12-.463 1.12-1.381v-3.036h-.262zm-1.07 2.721h.97v-2.375h-.957c-.338 0-.61.328-.61.811v.9c0 .404.286.664.598.664zm3.386-2.718h-1.078l-.008.001v-.001h-.167v.326h.167v-.002l.008.001.01.002h1.049c.299 0 .492.246.492.572v.42h-1.014c-.49 0-.883.4-.883.875 0 .477.393.865.883.865h1.374v-2.181c0-.495-.348-.878-.833-.878zm-.541 2.726h1.014V17.55h-1.014a.546.546 0 0 0-.53.54c0 .29.246.529.53.529zm5.11-2.723h-2.988V18.956h.354v-2.732h1.439V18.956h.355V16.224h.84c.313 0 .598.274.598.68V18.788l.002.004v.163h.354v-2.052c0-.63-.45-1.007-.955-1.007zm3.258 0h.985c.51 0 .959.378.959 1.007v2.052h-.365v-.35h.005v-1.702c0-.405-.247-.68-.6-.68h-.979v2.55a.076.076 0 0 1-.003.02.105.105 0 0 0-.003.011v.151h-.354v-3.059h.354zm4.614 0h-1.055c-.721 0-.97.699-.97 1.14v.917c0 .63.45 1.002.958 1.002h.964c-.01.74-.178 1.034-.76 1.034h-1.102v.325h.182v-.002h.004l.003.002h.918c.871 0 1.12-.463 1.12-1.381v-3.036h-.262zm-1.065 2.722h.97v-2.376h-.958c-.338 0-.609.329-.609.812v.9c0 .404.285.664.597.664zm5.322-1.355l-.217-.032c-.507-.063-.726-.161-.726-.495 0-.364.297-.5.68-.5h1.102v-.325h-.178l-.006-.001a.024.024 0 0 0-.007-.002h-.91c-.556 0-1.039.238-1.039.838 0 .544.393.747.99.814l.258.03c.41.048.639.23.639.505 0 .404-.308.546-.785.546h-.84a.051.051 0 0 0-.013.002l-.01.002v-.003h-.187v.325h.187v-.006l.01.002h.001a.049.049 0 0 0 .013.003h.84c.673 0 1.143-.203 1.143-.877 0-.509-.362-.746-.945-.826zm2.51-1.355h.367c.581 0 1.011.477 1.011 1.108v.924c0 .629-.44 1.047-1.011 1.047h-.367c-.574 0-1.014-.418-1.014-1.047v-.924c0-.63.43-1.108 1.014-1.108zm1.022 2.047c0 .405-.266.714-.655.714h-.367c-.39 0-.653-.31-.653-.714v-.974c0-.415.267-.766.653-.766h.367c.386 0 .655.352.655.766v.974zm9.508-2.043h.367c.582 0 1.012.477 1.012 1.107v.924c0 .63-.44 1.048-1.012 1.048h-.367c-.573 0-1.013-.419-1.013-1.048v-.924c0-.63.43-1.107 1.013-1.107zm1.021 2.047c0 .404-.265.714-.655.714h-.367c-.389 0-.653-.31-.653-.714v-.975c0-.414.267-.765.653-.765h.367c.386 0 .655.351.655.765v.975zm1.331-2.053h1.066c.51 0 .959.378.959 1.007v2.046h-.153c-.012.002-.022.006-.034.006a.068.068 0 0 1-.02-.003.111.111 0 0 0-.012-.003h-.142v-2.046c0-.405-.246-.68-.598-.68h-.98v2.726h-.147l-.005.001-.006.002h-.006l-.002.002h-.006l-.005.001h-.004l-.01-.001-.01-.002-.012-.003h-.147v-3.053h.274zm3.925 1.363l-.217-.032c-.507-.062-.726-.16-.726-.494 0-.365.297-.5.68-.5h.911v.002h.194v-.33h-1.104c-.556 0-1.039.238-1.039.838 0 .544.393.746.99.814l.258.03c.41.048.639.23.639.505 0 .404-.308.545-.784.545h-.84c-.014 0-.026.003-.039.007l-.007.002v-.003h-.127v.313h.127v-.002l.006.002.018.004h.005l.004.001.013.001h.84c.673 0 1.143-.203 1.143-.876 0-.509-.362-.747-.945-.827zm-56.505-1.09v-.273h.36V18.711l-.001.002v.254h-1.339c-.51 0-.959-.372-.959-1.002V15.907h.36v2.058c0 .404.286.678.6.678h.977v-.038h.002V16.18zm10.595-.273h-.36V18.643h-.98c-.313 0-.598-.274-.598-.678v-2.058h-.36v2.058c0 .63.448 1.003.959 1.003h1.065a.03.03 0 0 0 .005 0l.004-.001h.265V15.907zm-6.387 0h.352v.167l.002.01v2.723l-.002.005v.156h-.352v-.154l-.002-.012v-2.719l.001-.007.001-.003v-.166zm2.973 0h-.955c-.72 0-.969.699-.969 1.14v.917c0 .63.45 1.002.958 1.002h.966v1.136h.363v-4.195h-.363zm-.965 2.736h.97v-1.476h-.003v-.914h-.955c-.338 0-.609.329-.609.812v.9c0 .404.285.678.597.678zm20.949-2.726h-.171l-.01-.002-.004.001h-.003l-.001.001h-.166V18.976h.355v-.162-.002V16.092 15.917zm17.66.224h-.002v-.226h.363V18.976H61.398c-.51 0-.959-.373-.959-1.003V15.915h.362v.226H60.8v1.832c0 .404.285.678.599.678h.977v-.02h.002v-2.49zm2.517-.217l-.013-.002c-.008-.002-.015-.004-.024-.004h-.772V15.24h-.358v.16a.02.02 0 0 1 0 .005c-.002.003-.002.005-.002.007v.506h-.32a.063.063 0 0 0-.014.002.1.1 0 0 1-.01.002v-.005h-.152v.338h.152v-.003l.01.002.015.002h.319v1.778c0 .643.26 1.002.918 1.002h.223a.066.066 0 0 0 .017-.002l.01-.002v.004h.153v-.34h-.152v.003a.092.092 0 0 1-.011-.002l-.01-.002a.04.04 0 0 0-.007 0h-.223c-.427 0-.558-.216-.558-.661v-1.778h.781a.05.05 0 0 0 .01 0l.007-.003.01-.002v.004h.153v-.338h-.152v.007zm.82 2.884v-2.897h.362v3.065h-.362v-.168z" clip-rule="evenodd"/>
    <path fill="#EA158E" fill-rule="evenodd" d="M79.204 0v6.915l7.599-3.458L79.203 0z" clip-rule="evenodd"/>
    <path fill="#2CAFE5" fill-rule="evenodd" d="M86.803 3.46v6.915L94.4 6.917 86.803 3.46z" clip-rule="evenodd"/>
    <path fill="#13B6A7" fill-rule="evenodd" d="M86.803 10.37v6.916l7.598-3.458-7.598-3.458z" clip-rule="evenodd"/>
    <path fill="#FEE700" fill-rule="evenodd" d="M94.4 13.826l7.6-3.458-7.6-3.457v6.915z" clip-rule="evenodd"/>
    <path fill="#EC242A" fill-rule="evenodd" d="M79.204 6.91v6.916l7.599-3.458-7.6-3.457z" clip-rule="evenodd"/>
    <path fill="#FCB34B" fill-rule="evenodd" d="M79.204 20.745l7.599-3.457-7.6-3.458v6.915z" clip-rule="evenodd"/>
</svg>
