<svg xmlns="http://www.w3.org/2000/svg" width="111" height="29" fill="none" viewBox="0 0 111 29">
    <path fill="#000" d="M28.299 0c0 .955-.038 1.899-.113 2.835-.075.955-.187 1.902-.337 2.834-.153.96-.344 1.906-.573 2.835-.236.959-.51 1.906-.82 2.835H7.838c-.375-.921-.708-1.869-.993-2.835h17.552c.247-.929.456-1.876.625-2.835.16-.932.285-1.876.367-2.834H2.909c.083.958.207 1.902.368 2.834.168.96.378 1.906.625 2.835.258.963.558 1.906.899 2.835.266.723.558 1.434.872 2.134.105.236.214.468.326.7.464.974.977 1.918 1.532 2.835.31.513.636 1.015.973 1.513.307.45.626.888.955 1.322.236.315.483.625.734.929.37.453.753.898 1.146 1.333.176.19.352.382.535.573.068.07.135.142.206.213.663.682 1.352 1.337 2.071 1.959.008.007.015.015.023.018v-.04c.711-.615 1.393-1.263 2.048-1.937.071-.071.138-.142.206-.213.195-.206.39-.412.58-.622.379-.416.745-.843 1.101-1.28.251-.308.498-.615.734-.933.345-.453.678-.917 1-1.39.322-.471.633-.954.929-1.445h-9.867c-.63-.91-1.206-1.857-1.73-2.834H25.37c-.42.97-.884 1.913-1.385 2.834-.412.757-.847 1.494-1.311 2.213-.135.21-.27.416-.408.622-.607.902-1.255 1.779-1.94 2.621-.06.071-.116.143-.176.214-.105.127-.21.25-.314.374-.45.532-.918 1.049-1.397 1.55-.292.308-.592.61-.899.91-.176.173-.356.345-.54.513-.209.199-.422.394-.636.585-.678.606-1.382 1.183-2.108 1.737-.037.03-.075.056-.112.086-.038-.026-.075-.056-.113-.086-.726-.554-1.43-1.135-2.108-1.741-.198-.176-.397-.356-.592-.54-.198-.183-.39-.366-.584-.557-.303-.296-.603-.603-.899-.91-.464-.487-.913-.985-1.351-1.498l-.36-.427c-.056-.071-.116-.142-.176-.213-.685-.843-1.333-1.715-1.94-2.618-.12-.18-.24-.363-.36-.547-.478-.741-.931-1.505-1.355-2.284-.501-.921-.962-1.869-1.381-2.835-.034-.07-.064-.146-.098-.22-.363-.854-.696-1.727-.992-2.614-.31-.93-.584-1.873-.82-2.835-.229-.933-.42-1.876-.573-2.835-.15-.932-.262-1.88-.337-2.835C.037 1.898 0 .955 0 0h28.299zM38.592 7.97c.767 0 1.415.258 1.94.775.524.517.786 1.154.786 1.906 0 .753-.262 1.39-.786 1.906-.525.517-1.173.775-1.94.775h-1.404v2.625h-1.573V7.97h2.977zm0 3.89c.333 0 .61-.115.831-.348.221-.232.33-.52.33-.86 0-.349-.109-.641-.33-.87-.22-.228-.498-.34-.831-.34h-1.404v2.419h1.404zM45.323 16.115c-.892 0-1.622-.251-2.19-.753-.57-.502-.855-1.176-.855-2.018V7.97h1.562v5.25c0 .42.12.749.36.992.239.244.613.367 1.123.367.509 0 .883-.123 1.123-.367.24-.243.36-.572.36-.992V7.97h1.572v5.374c0 .842-.284 1.516-.857 2.018-.566.502-1.3.753-2.198.753zM52.525 16.125c-.79 0-1.457-.176-1.996-.532-.54-.351-.921-.835-1.142-1.441l1.344-.787c.311.813.925 1.221 1.839 1.221.442 0 .764-.079.97-.24.206-.16.307-.359.307-.602 0-.281-.127-.502-.378-.656-.251-.157-.7-.325-1.348-.509-.36-.105-.66-.213-.907-.318-.247-.105-.494-.247-.741-.427s-.434-.405-.566-.678c-.13-.273-.194-.592-.194-.959 0-.722.258-1.299.771-1.73.513-.43 1.131-.644 1.854-.644.648 0 1.213.158 1.704.472.49.315.872.757 1.145 1.318l-1.321.764c-.319-.685-.828-1.026-1.528-1.026-.326 0-.584.075-.772.221-.187.15-.28.34-.28.577 0 .25.104.453.314.61.21.157.61.326 1.202.51.243.074.427.134.554.175.124.041.296.105.513.195.218.086.386.169.502.244.116.074.251.18.405.307.153.13.27.262.348.4.078.139.15.303.206.495.056.194.086.404.086.632 0 .738-.27 1.322-.805 1.757-.528.434-1.228.651-2.086.651zM60.932 7.97h1.565v7.984h-1.565v-3.307h-2.966v3.307h-1.573V7.97h1.573v3.172h2.966V7.97zM74.67 11.676v.618c0 1.142-.362 2.063-1.097 2.771-.73.708-1.673 1.06-2.83 1.06-1.233 0-2.255-.4-3.064-1.202-.808-.802-1.213-1.783-1.213-2.94 0-1.164.4-2.15 1.202-2.954.801-.805 1.798-1.21 2.985-1.21.745 0 1.426.169 2.04.51.618.336 1.094.79 1.439 1.351l-1.349.775c-.19-.325-.475-.591-.86-.797-.387-.206-.814-.307-1.285-.307-.76 0-1.386.25-1.876.749-.49.498-.738 1.127-.738 1.887 0 .753.25 1.374.749 1.865.498.49 1.157.737 1.98.737.607 0 1.113-.134 1.514-.404.4-.27.67-.64.816-1.112h-2.42V11.68h4.008v-.004zM80.755 15.954l-.51-1.438h-3.28l-.48 1.438h-1.7l2.798-7.988h1.951l2.816 7.987h-1.595zm-3.273-2.91h2.247l-1.153-3.262-1.094 3.262zM90.941 7.97v7.984H89.38v-5.18l-2.254 3.708-.184.004-2.243-3.693v5.16h-1.573V7.97h1.618l2.292 3.77 2.28-3.77h1.625zM94 7.97h-1.576v7.987H94V7.97zM100.103 7.97h1.573v7.984h-1.198l-3.423-4.883v4.883h-1.573V7.97h1.195l3.426 4.864V7.97zM111 11.676v.618c0 1.142-.367 2.063-1.097 2.771-.73.708-1.674 1.06-2.831 1.06-1.232 0-2.254-.4-3.063-1.202-.809-.802-1.214-1.783-1.214-2.94 0-1.164.401-2.15 1.202-2.954.802-.805 1.798-1.21 2.985-1.21.745 0 1.427.169 2.041.51.618.336 1.097.79 1.438 1.351l-1.348.775c-.191-.325-.476-.591-.862-.797-.385-.206-.812-.307-1.284-.307-.76 0-1.386.25-1.876.749-.491.498-.738 1.127-.738 1.887 0 .753.251 1.374.749 1.865.498.49 1.157.737 1.981.737.607 0 1.112-.134 1.513-.404.401-.27.67-.64.816-1.112h-2.419V11.68H111v-.004z"/>
</svg>
