<svg xmlns="http://www.w3.org/2000/svg" width="82" height="19" fill="none" viewBox="0 0 82 19">
    <path fill="#F26822" fill-rule="evenodd" d="M36.859 9.685l2.177-2.903 2.553-3.423.596-.799L43.816.366c.322-.437 1.07-.488 1.649-.125.579.374.782 1.033.46 1.473l-1.648 2.214-.596.8-2.468 3.309-2.245 2.997c-.321.437-1.07.487-1.648.125-.58-.374-.782-1.033-.461-1.474zM1.218 5.32c.665 0 1.218-.571 1.218-1.26 0-1.075.907-1.542 1.819-1.542h.064c.908 0 1.82.471 1.82 1.543 0 .688.552 1.259 1.217 1.259.666 0 1.234-.571 1.234-1.26C8.59 1.715 6.804 0 4.335 0h-.064C1.787 0 0 1.697 0 4.06c0 .689.536 1.26 1.218 1.26zm7.372 7.295c0-.671-.552-1.229-1.218-1.229-.665 0-1.218.541-1.218 1.229 0 1.05-.907 1.505-1.819 1.505h-.064c-.907 0-1.819-.46-1.819-1.505 0-.671-.552-1.229-1.218-1.229-.665 0-1.234.541-1.234 1.229 0 2.29 1.787 3.961 4.255 3.961h.064c.323 0 .65-.032.94-.081l1.073 2.111c.21.41.875.508 1.46.195.6-.309.907-.899.697-1.31l-1.04-2.11c.722-.704 1.141-1.668 1.141-2.766zM2.343 5.333v6.034c-.297-.306-.698-.474-1.164-.493-.466 0-.886.203-1.179.509v-6.08a1.638 1.638 0 0 0 2.343.03zm3.905-.03v6.08a1.636 1.636 0 0 1 2.343-.03v-6.02c-.295.29-.702.478-1.172.478-.45 0-.872-.199-1.171-.508zM28.99 4.06c0 .688-.554 1.259-1.22 1.259-.683 0-1.22-.571-1.22-1.26 0-2.346 1.79-4.06 4.262-4.06h.065c2.473 0 4.263 1.714 4.263 4.06 0 .689-.554 1.26-1.22 1.26-.667 0-1.22-.571-1.22-1.26 0-1.07-.914-1.542-1.823-1.542h-.065c-.913 0-1.822.467-1.822 1.543zm4.93 7.325c-.667 0-1.22.572-1.22 1.26 0 1.075-.91 1.542-1.823 1.542h-.065c-.909 0-1.822-.471-1.822-1.543 0-.688-.554-1.259-1.22-1.259-.667 0-1.22.572-1.22 1.26 0 2.347 1.79 4.06 4.262 4.06h.065c2.473 0 4.263-1.713 4.263-4.06 0-.705-.554-1.26-1.22-1.26zm-5.028-6.053v6.034a1.734 1.734 0 0 0-1.163-.493c-.467 0-.887.203-1.18.509v-6.08a1.637 1.637 0 0 0 2.343.03zM48.08 5.32c.667 0 1.22-.571 1.22-1.26 0-1.075.91-1.542 1.823-1.542h.064c.91 0 1.823.471 1.823 1.543 0 .688.553 1.259 1.22 1.259.667 0 1.22-.571 1.22-1.26 0-2.346-1.79-4.06-4.263-4.06h-.064c-2.473 0-4.263 1.714-4.263 4.06 0 .689.553 1.26 1.22 1.26zm-.442.493c.465.14.976.11 1.392-.14.412-.235.663-.646.73-1.103l4.906 6.31a1.788 1.788 0 0 0-1.36.156c-.432.254-.68.676-.745 1.133l-4.923-6.356zm6.592 5.573c-.667 0-1.22.572-1.22 1.26 0 1.075-.91 1.542-1.823 1.542h-.064c-.91 0-1.823-.471-1.823-1.543 0-.688-.553-1.259-1.22-1.259-.667 0-1.22.572-1.22 1.26 0 2.347 1.79 4.06 4.263 4.06h.064c2.473 0 4.263-1.713 4.263-4.06-.004-.705-.553-1.26-1.22-1.26zm-37.13 1.26c0-.689.553-1.26 1.22-1.26.683 0 1.22.555 1.204 1.26 0 2.347-1.79 4.06-4.263 4.06h-.064c-2.473 0-4.263-1.713-4.263-4.06 0-.705.554-1.26 1.22-1.26.667 0 1.22.572 1.22 1.26 0 1.054.93 1.542 1.839 1.542h.065c.913 0 1.822-.467 1.822-1.543zM18.35 0c-.64 0-1.171.55-1.171 1.211V11.4c.295-.321.718-.534 1.187-.534.454 0 .857.193 1.156.502V1.21C19.522.53 18.99 0 18.35 0zm-5.074 5.748v5.62a1.627 1.627 0 0 0-1.164-.502c-.466 0-.886.213-1.179.534V1.21c0-.678.543-1.211 1.18-1.211.635 0 1.163.55 1.163 1.211v4.537zm10.934.065V1.225C24.21.555 23.679 0 23.039 0s-1.172.556-1.172 1.225v14.27c0 .669.532 1.225 1.172 1.225.64 0 1.171-.556 1.171-1.225V5.813zm46.074-1.208v10.889c0 .67-.531 1.226-1.171 1.226s-1.172-.556-1.172-1.226V1.225c0-.67.532-1.225 1.172-1.225.64 0 1.171.556 1.171 1.225v3.38zm4.684 3.27l-.47-.971-.577-1.192-1.296-2.668v12.488c0 .65.532 1.192 1.172 1.192.64 0 1.171-.541 1.171-1.192V7.875zm2.227-2.565l2.444 5.003 2.211 4.543c.322.654.097 1.458-.502 1.75-.6.293-1.363 0-1.685-.67l-2.15-4.397-2.526-5.132-.599-1.226-1.616-3.318c-.322-.654-.096-1.458.503-1.75.599-.292 1.362 0 1.684.67l1.653 3.334.583 1.193zM82 10.54V1.184C82 .538 81.469 0 80.829 0s-1.172.538-1.172 1.185V8.88l.439.898L82 13.68v-3.14zm-37.398 1.9L43.056 9.38l-.368-.74-.527-1.05-.448.661-1.102 1.609.317.628 1.593 3.159 1.371 2.69c.207.404.86.5 1.435.191.59-.304.892-.884.686-1.288l-1.411-2.798zm-5.553-7.888v1.05l-.59.87-1.752 2.648V1.21C36.707.55 37.25 0 37.886 0s1.163.55 1.163 1.211v3.34zm-2.032 7.116a2.582 2.582 0 0 1-.31-.282v4.069c0 .684.531 1.251 1.171 1.251s1.171-.567 1.171-1.251v-3.886a1.374 1.374 0 0 1-1.031.451 1.786 1.786 0 0 1-1.001-.352zM63.242 0l-.016.016c1.85.248 3.154 2.097 3.154 4.792v.081c0 2.703-1.304 4.714-3.138 4.958 0 .008.004.013.008.017.004.004.008.008.008.016h-4.377c-.595 0-1.091-.476-1.091-1.26s.496-1.26 1.091-1.26h4.045c.857-.065 1.255-1.422 1.255-2.455v-.097c0-1.028-.381-2.223-1.255-2.288h-4.045c-.595 0-1.091-.476-1.091-1.26 0-.785.496-1.26 1.091-1.26H63.242zm-3.125 10.301h-1.302c-.405 0-.76-.16-1.025-.437v5.63c0 .661.528 1.21 1.164 1.21.636 0 1.163-.549 1.163-1.21v-5.193zm.016-4.43v.879h-1.318c-.42 0-.763.16-1.025.427V2.617c.266.271.62.428 1.025.428h1.318v2.827z" clip-rule="evenodd"/>
</svg>
