<svg xmlns="http://www.w3.org/2000/svg" width="104" height="20" fill="none" viewBox="0 0 104 20">
    <path fill="#D71920" fill-rule="evenodd" d="M101.103 10.662L104 15.403l-3.302.003-2.732-4.452h-.03v4.452H94.96V3.862h4.443a4.436 4.436 0 0 1 2.892.857 3.246 3.246 0 0 1 1.092 2.67 3.54 3.54 0 0 1-.66 2.148 2.351 2.351 0 0 1-1.624 1.125zm-.985-3.814a1.179 1.179 0 0 0-.472-.445 2.082 2.082 0 0 0-.653-.207 5.152 5.152 0 0 0-.766-.054h-.289v2.886h.288c.257.002.513-.016.767-.053.228-.033.448-.103.653-.207.196-.1.359-.255.472-.446a1.655 1.655 0 0 0 0-1.474zM86.613 3.874h6.511V6.43H89.6v1.858h3.525v2.634H89.6v1.859h3.525v2.633h-6.512V3.875zM43.562 6.43h-3.524v1.858h3.524v2.634h-3.524v1.859h3.524v2.633H37.05V3.875h6.512V6.43zM32.52 15.419l-2.732-4.452h-.03v4.452h-2.976V3.874h4.444a4.438 4.438 0 0 1 2.892.857A3.247 3.247 0 0 1 35.21 7.4a3.546 3.546 0 0 1-.66 2.149 2.8 2.8 0 0 1-1.845 1.12l3.118 4.742-3.303.007zm-.58-8.57a1.174 1.174 0 0 0-.473-.446 2.073 2.073 0 0 0-.652-.207 5.162 5.162 0 0 0-.767-.054h-.288v2.886h.288c.257.002.513-.016.767-.053.227-.033.448-.102.652-.207.197-.1.36-.255.472-.446a1.65 1.65 0 0 0 0-1.474zM51.374 4.31c.65.289 1.237.708 1.724 1.232.5.537.892 1.165 1.157 1.852a6.294 6.294 0 0 1-.007 4.501 5.765 5.765 0 0 1-1.165 1.844 5.39 5.39 0 0 1-1.724 1.232 4.95 4.95 0 0 1-2.062.445h-3.899V3.874h3.899a5.06 5.06 0 0 1 2.077.435v.002zM48.15 6.412v6.46h.617c.4.003.798-.061 1.177-.19a2.632 2.632 0 0 0 1.626-1.608c.167-.458.248-.943.24-1.431a3.276 3.276 0 0 0-.828-2.373 2.904 2.904 0 0 0-2.189-.857h-.643zm18.927.003h-2.46v9.001h-2.973v-9h-2.46V3.873h7.893v2.541zm4.794 9.002h-2.977V3.839h2.977v11.578zm3.392-9.948a5.123 5.123 0 0 1 1.828-1.185 6.454 6.454 0 0 1 2.328-.409 5.341 5.341 0 0 1 2.882.761 4.966 4.966 0 0 1 1.9 2.268l-2.616 1.119a2.766 2.766 0 0 0-.887-1.263 2.216 2.216 0 0 0-1.406-.46 2.374 2.374 0 0 0-1.167.288c-.346.19-.645.457-.872.782-.238.336-.418.71-.535 1.105a4.325 4.325 0 0 0 0 2.484c.117.394.3.766.542 1.098.233.32.537.583.886.767.367.19.775.287 1.188.28a2.363 2.363 0 0 0 1.533-.488c.413-.345.663-.85.689-1.392h-2.25v-2.21h5.47c-.005.8-.082 1.597-.232 2.382-.15.685-.44 1.33-.851 1.895a4.73 4.73 0 0 1-1.883 1.6 5.83 5.83 0 0 1-2.49.525 6.182 6.182 0 0 1-2.277-.41 5.203 5.203 0 0 1-1.8-1.17 5.154 5.154 0 0 1-1.168-1.813 6.374 6.374 0 0 1-.408-2.318c-.01-.813.13-1.622.414-2.383a5.338 5.338 0 0 1 1.182-1.855v.002zM14.429 6.43c-.01.315.014.667-.472.827-.287.096-.64-.302-.66-.579.144-.194.34-.34.566-.423.452-.172.56-.205.566.176zm-8.34.827c-.486-.16-.461-.512-.471-.826.006-.38.113-.348.565-.175.225.082.422.229.565.422-.02.279-.372.675-.66.58zm11 9.193c.298-.142.568-.337.799-.574 1.133-1.223 1.353-2.632 1.489-4.262.035-.425.028-.853.05-1.29.003-.066.013-.368.044-.368.088.099.16.213.208.337.139.38.227.777.263 1.18.13.793.152 1.6.067 2.4-.04.278-.13.546-.27.79-.708 1.198-1.492 2.31-2.24 3.49-.062.098-.107-.09-.15-.121l-.06-.061c-.17-.093-.235-.104-.317-.047l-.075.15a24.125 24.125 0 0 1-.711 1.424.129.129 0 0 1-.242-.065c0-.45.003-.9-.003-1.35-.003-.28.003-.623-.381-.622-.376 0-.387.331-.392.619-.004.262 0 .525 0 .828a.132.132 0 0 1-.066.116.129.129 0 0 1-.133-.004 4.074 4.074 0 0 0-1.036-.572 1.918 1.918 0 0 0-1.812.202l.08-.074a1.88 1.88 0 0 1 1.678-.454c.163.036.331.05.498.04a.129.129 0 0 0 .101-.058.132.132 0 0 0 .013-.117c-.232-.624-.958-2.912.534-3.69a.133.133 0 0 0 .073-.1c.052-.42.81-2.237-1.25-3.422-.323.29-.721.968-1.23 1.402.898.195 1.372-.353 1.806-.73-.178 1.058-.993 1.134-1.643 1.518.56-.243 1.117.087 1.781-.268-.48.93-1.432.471-2.017.962.56.366 1.079.166 1.593.11.145-.02.293-.015.436.016-.12.178-.261.34-.418.486a1.988 1.988 0 0 1-.665.333 1.358 1.358 0 0 1-.754.02 31.96 31.96 0 0 1-2.174-.794.538.538 0 0 1-.284-.342c-.044-.236.01-.489-.013-.731a.57.57 0 0 1 .449-.665 3.13 3.13 0 0 0 1.683-1.172c.139-.204.239-.432.295-.673v-.014a1.864 1.864 0 0 0-.114-.651.921.921 0 0 1 .013-.504l.012-.054v-.008h.003l.146-.634a.845.845 0 0 1 .329-.486l.044-.027a.364.364 0 0 1 .056-.037 4.97 4.97 0 0 1 .858-.355 3.724 3.724 0 0 0 2.178-2.374c.125-.36.156-.747.089-1.123-.1.205-.254.616-.35.824a.753.753 0 0 1-.79.5c-.954.007-1.874.17-2.397 1.175a2.46 2.46 0 0 1-1.138 1.247 2.42 2.42 0 0 1 .13-.859c-.444-.184-.27-.445-.032-.705.322-.353.648-.701.99-1.07a1.682 1.682 0 0 1-.766-.43h1.866c0-.02.003-.038.005-.057a5.263 5.263 0 0 1-1.627-.589c.867-.54 2.669-.272 2.973-.37.004-.073-.25-.128-.508-.213-.598-.156-.823-.205-1.42-.368a7.621 7.621 0 0 1-1.701-.697h2.45a7.245 7.245 0 0 0-2.704-.907 14.565 14.565 0 0 0-1.257-.028l-.003-.159v.159c-.332-.006-.719-.007-1.257.028a7.248 7.248 0 0 0-2.705.907h2.451c-.537.3-1.109.534-1.701.697-.599.163-.822.211-1.42.368-.26.085-.512.14-.508.213.304.1 2.107-.17 2.974.37a5.26 5.26 0 0 1-1.628.59c0 .018.003.037.005.056h1.867a1.68 1.68 0 0 1-.766.43c.342.369.668.717.99 1.07.237.259.412.52-.032.705.095.276.14.567.131.86a2.46 2.46 0 0 1-1.14-1.248C6.769 5.472 5.848 5.31 4.893 5.304a.753.753 0 0 1-.79-.5c-.095-.208-.25-.618-.349-.824a2.22 2.22 0 0 0 .09 1.123A3.722 3.722 0 0 0 6.02 7.477c.296.09.583.21.858.355.02.01.038.023.056.037.014.009.03.017.044.027.164.117.28.29.329.486l.146.634h.002v.008l.013.054c.05.163.054.338.012.504a1.87 1.87 0 0 0-.114.665c.056.24.156.47.296.673.415.57 1.007.983 1.682 1.172a.57.57 0 0 1 .45.665c-.023.242.03.495-.014.73a.538.538 0 0 1-.284.343c-.717.285-1.44.562-2.174.794-.248.065-.51.058-.754-.02a1.988 1.988 0 0 1-.665-.332 2.866 2.866 0 0 1-.418-.486c.143-.031.29-.037.436-.017.515.057 1.032.257 1.596-.11-.586-.49-1.538-.031-2.018-.962.665.353 1.222.026 1.78.269-.647-.385-1.464-.461-1.642-1.518.435.376.91.925 1.806.73-.508-.434-.907-1.112-1.23-1.402-2.06 1.185-1.303 3.002-1.25 3.421a.132.132 0 0 0 .073.101c1.492.777.766 3.065.534 3.69a.133.133 0 0 0 .012.116c.023.035.06.057.1.06.167.008.335-.005.499-.04a1.88 1.88 0 0 1 1.677.453l.081.074a1.918 1.918 0 0 0-1.812-.202c-.37.139-.72.332-1.036.572a.129.129 0 0 1-.133.004.132.132 0 0 1-.066-.116v-.828c-.005-.288-.016-.619-.391-.62-.385 0-.379.343-.383.623-.006.45-.004.9-.003 1.35a.129.129 0 1 1-.241.064c-.22-.402-.536-1.03-.712-1.422-.022-.05-.05-.101-.075-.152-.081-.056-.15-.045-.317.048l-.06.06c-.042.033-.088.22-.15.122-.747-1.18-1.532-2.292-2.24-3.49a2.193 2.193 0 0 1-.269-.79 8.938 8.938 0 0 1 .067-2.4 4.6 4.6 0 0 1 .263-1.18 1.11 1.11 0 0 1 .207-.337c.03 0 .041.302.044.369.022.436.015.864.05 1.289.136 1.63.356 3.039 1.49 4.262.23.237.5.432.797.575.05.02.107.007.143-.033a.132.132 0 0 0 .022-.146c-.346-.711-.719-1.41-.997-2.148-.284-.751-.474-1.54-.692-2.318a.13.13 0 0 1 .034-.13.127.127 0 0 1 .13-.03c.161.056.378.146.548.212a.128.128 0 0 0 .134-.026.132.132 0 0 0 .036-.132c-.216-.75-.917-2.947-.917-2.947.042.05.452.655.481.709.33.536.619 1.096.865 1.676.118.306.213.527.265.643.024.05.033.11-.01.147-.583.499-.112 1.45.135 1.746.341.415.587.9.72 1.422l.13.42a.128.128 0 0 0 .249-.047c-.044-.672-.161-1.583-.38-1.792-.339-.321-.267-1.43.111-1.627.353-.183.432-.378.254-.691a.134.134 0 0 1 .047-.183l1.622-.938a.131.131 0 0 0-.044-.243 2.204 2.204 0 0 0-1.568.466.706.706 0 0 1-.618.053.717.717 0 0 1-.425-.456 2.004 2.004 0 0 1-.086-.256c-.02-.07.045-.13.114-.15.798-.202.918-.244.958-.488a.132.132 0 0 0-.03-.105.13.13 0 0 0-.097-.046c-.278.04-.561.006-.821-.1a1.059 1.059 0 0 1-.287-.584.132.132 0 0 1 .038-.134.129.129 0 0 1 .136-.023c.281.121.358.117.513-.003a.134.134 0 0 0 .021-.19.76.76 0 0 0-.117-.121c-.585-.461-1.483-3.008-1.453-3.76-.235.204-.41.468-.508.764C1.007 4.608.536 4.528.624 3.648l.684.357s.036-.267-.331-.577C.19 2.763.07 1.88.046.919A.849.849 0 0 1 .439.127a.83.83 0 0 1 .876-.003c1.528.725 3.632 1.456 5.37 1.23l.057-.011.005-.003-.004.002A16.783 16.783 0 0 1 10.028.99h.01a16.78 16.78 0 0 1 3.285.353l-.004-.002.005.003.058.012C15.119 1.58 17.22.85 18.75.124a.83.83 0 0 1 .877.003c.268.168.42.474.393.792-.025.96-.145 1.845-.932 2.509-.367.31-.33.577-.33.577l.684-.357c.087.88-.384.96-1.002 1.215a1.714 1.714 0 0 0-.507-.763c.03.751-.868 3.298-1.453 3.759a.78.78 0 0 0-.118.12.133.133 0 0 0-.03.101.134.134 0 0 0 .05.09c.155.12.232.125.514.004a.128.128 0 0 1 .136.023.131.131 0 0 1 .038.134c-.033.22-.133.424-.287.583-.26.106-.544.141-.822.1a.13.13 0 0 0-.097.047.133.133 0 0 0-.03.104c.04.245.158.286.958.488.07.017.133.078.114.15a1.993 1.993 0 0 1-.085.256.718.718 0 0 1-.426.456.707.707 0 0 1-.618-.053 2.204 2.204 0 0 0-1.568-.466.131.131 0 0 0-.043.243l1.621.938a.135.135 0 0 1 .047.183c-.178.314-.1.509.254.692.379.197.448 1.305.112 1.627-.22.208-.336 1.12-.38 1.791a.128.128 0 1 0 .25.048c.048-.16.094-.313.129-.42a3.658 3.658 0 0 1 .719-1.422c.25-.296.718-1.248.136-1.746a.12.12 0 0 1-.011-.147c.05-.116.15-.338.265-.644.246-.58.535-1.14.865-1.676.03-.056.44-.66.481-.709 0 0-.7 2.197-.917 2.947a.131.131 0 0 0 .037.132.128.128 0 0 0 .133.027c.17-.067.387-.156.548-.212a.127.127 0 0 1 .13.03.13.13 0 0 1 .034.13c-.218.777-.407 1.565-.692 2.318-.279.736-.652 1.437-.997 2.147a.132.132 0 0 0 .021.147c.037.04.094.053.144.032l-.006-.002zM6.43 10.638l-.07.037c.025-.013.05-.025.07-.037zM3.506 1.054c.135.034.265.064.39.092a2.772 2.772 0 0 0-.39-.092zm-.17.19C1.534 1.1 1.867 2.444 2.216 3.24l.291.486c.017.02.031.042.041.066 0 .004.004.009.006.014.449 1.07.822 3.344 2.982 4.216a3.118 3.118 0 0 1-.247-.16A6.11 6.11 0 0 1 3.79 5.936c-.964-1.96-.712-3.19-.829-3.678.187.066.848.209.978.255.012-.03-1.16-.544-1.496-.722.148-.094.315-.155.488-.178.761-.08 1.047.164 1.54.235.33.03.662.004.983-.078l-2.12-.526zm10.28 9.398a.941.941 0 0 0 .071.037l-.071-.037zm2.538-9.496c.125-.028.254-.059.39-.092a2.76 2.76 0 0 0-.39.091v.001zm1.337 2.66c0-.005.005-.01.006-.014a.236.236 0 0 1 .042-.066l.29-.486c.35-.797.683-2.139-1.117-1.996l-2.121.525c.32.082.653.108.982.078.493-.071.78-.315 1.54-.235.174.023.34.084.489.178-.335.178-1.508.692-1.496.722.131-.046.791-.19.977-.255-.117.49.135 1.72-.83 3.678a6.107 6.107 0 0 1-1.498 1.926 3.056 3.056 0 0 1-.247.16c2.162-.873 2.535-3.146 2.983-4.216zm-7.47 6.956c-.259 0-.539 0-.898-.006a2.35 2.35 0 0 1-.95-.186.53.53 0 0 1-.215-.53c.019-.274.372-.468.372-.468-.013.642.539.814 1.69.825h.01c1.152-.011 1.703-.183 1.69-.825 0 0 .353.194.372.468a.531.531 0 0 1-.215.53c-.301.128-.625.19-.951.186-.358.006-.637.008-.898.006l-.005-.028-.002.028zm.004 6.894c.034.847-1.407.92-2.624.184-.07-.262.064-.713-.077-.812-.21-.147-.544.047-.755.183-.211.136-.35.397-.557.56.09-1.31 1.383-2.498 3.37-2.61.217-.012.438-.026.643-.025.205 0 .426.013.644.026 1.986.11 3.28 1.3 3.369 2.61-.21-.164-.344-.425-.556-.561-.213-.137-.546-.33-.756-.183-.14.1-.008.55-.076.812-1.218.736-2.66.663-2.625-.184z" clip-rule="evenodd"/>
</svg>
