<svg xmlns="http://www.w3.org/2000/svg" width="75" height="24" fill="none" viewBox="0 0 75 24">
    <path fill="#1B1719" fill-rule="evenodd" d="M3.948 20.498H2.851c-.153 0-.237.098-.253.295.018.178.111.267.28.267h.873v.213c0 .67-.259 1.128-.773 1.375-.25.119-.498.175-.745.168-.357-.013-.65-.134-.875-.364-.395-.4-.59-.95-.585-1.646.004-.482.122-.907.356-1.276.27-.43.67-.645 1.2-.645.235 0 .445.04.631.118.152.064.332.179.542.342a.413.413 0 0 0 .233.09.33.33 0 0 0 .204-.076.24.24 0 0 0 .092-.193.294.294 0 0 0-.068-.198c-.162-.189-.391-.336-.685-.441a2.855 2.855 0 0 0-.99-.163 2.149 2.149 0 0 0-.934.217c-.272.134-.498.32-.68.55-.368.473-.55 1.07-.545 1.792.003.583.17 1.112.5 1.586.383.553.932.829 1.646.829.585 0 1.03-.13 1.337-.393.49-.415.734-1.044.734-1.885v-.11c0-.301-.133-.452-.398-.452zM74.531 20.498h-1.097c-.152 0-.237.098-.252.295.018.178.11.267.28.267h.872v.213c0 .67-.258 1.128-.772 1.375-.25.119-.498.175-.745.168-.357-.013-.65-.134-.875-.364-.394-.4-.59-.95-.585-1.646.003-.482.122-.907.355-1.276.271-.43.671-.645 1.202-.645.234 0 .444.04.63.118.152.064.332.179.542.342a.41.41 0 0 0 .233.09.33.33 0 0 0 .204-.076.239.239 0 0 0 .092-.193.293.293 0 0 0-.068-.198c-.162-.189-.391-.336-.686-.441a2.85 2.85 0 0 0-.989-.163c-.34.005-.651.078-.934.217a1.95 1.95 0 0 0-.68.55c-.368.473-.55 1.07-.545 1.792.002.583.17 1.112.5 1.586.382.553.932.829 1.645.829.586 0 1.031-.13 1.338-.393.49-.415.734-1.044.734-1.885v-.11c0-.301-.133-.452-.399-.452z" clip-rule="evenodd"/>
    <mask id="a" width="7" height="6" x="28" y="18" maskUnits="userSpaceOnUse">
        <path fill="#fff" fill-rule="evenodd" d="M28.922 18.376h5.334v5.055h-5.334v-5.055z" clip-rule="evenodd"/>
    </mask>
    <g mask="url(#a)">
        <path fill="#1B1719" fill-rule="evenodd" d="M33.386 18.482a.472.472 0 0 0-.309-.106.48.48 0 0 0-.269.08.402.402 0 0 0-.162.228l-1.044 3.608h-.012l-1.042-3.582a.431.431 0 0 0-.162-.248.48.48 0 0 0-.285-.086.439.439 0 0 0-.292.11.514.514 0 0 0-.16.321l-.713 4.137c0 .054-.005.1-.014.136.014.234.107.351.282.351.194 0 .305-.099.335-.297l.575-3.978 1.18 3.978c.049.161.15.241.308.241.15 0 .247-.08.295-.24l1.195-3.978.562 3.95c.026.18.128.268.308.268.196 0 .294-.135.294-.405l-.712-4.19a.48.48 0 0 0-.158-.299z" clip-rule="evenodd"/>
    </g>
    <path fill="#1B1719" fill-rule="evenodd" d="M45.204 18.36c-.205 0-.308.108-.308.322v4.328c0 .215.103.324.308.324.193 0 .289-.112.289-.337v-4.315c0-.214-.096-.322-.289-.322zM59.768 18.366a.273.273 0 0 0-.214.093.341.341 0 0 0-.08.23v3.552h-.008L56.9 18.56c-.097-.138-.211-.207-.344-.207-.168 0-.252.107-.252.321v4.355c0 .207.098.31.294.31.202 0 .302-.1.302-.296v-3.58l2.572 3.697c.089.128.201.193.336.193.178 0 .267-.104.267-.31v-4.355c0-.215-.103-.322-.308-.322zM15.658 21.756l.94-2.654h.011l.948 2.654h-1.899zm1.363-3.03a.598.598 0 0 0-.17-.26.396.396 0 0 0-.254-.09.375.375 0 0 0-.245.095.615.615 0 0 0-.174.269L14.6 22.957l-.02.075a1.902 1.902 0 0 0-.02.09c.014.16.108.24.28.24.155 0 .258-.07.309-.212l.324-.886h2.26l.323.886a.321.321 0 0 0 .309.226c.188 0 .281-.08.281-.242a.779.779 0 0 0-.027-.177l-1.6-4.23zM62.832.004a1.962 1.962 0 1 0-.001 3.925 1.962 1.962 0 0 0 0-3.925z" clip-rule="evenodd"/>
    <mask id="b" width="4" height="4" x="71" y="0" maskUnits="userSpaceOnUse">
        <path fill="#fff" fill-rule="evenodd" d="M71.075.004H75v3.925h-3.925V.004z" clip-rule="evenodd"/>
    </mask>
    <g mask="url(#b)">
        <path fill="#1B1719" fill-rule="evenodd" d="M73.038 3.929a1.962 1.962 0 1 0 0-3.925 1.962 1.962 0 0 0 0 3.925z" clip-rule="evenodd"/>
    </g>
    <path fill="#1B1719" fill-rule="evenodd" d="M62.832 9.537a1.962 1.962 0 1 0-.001 3.925 1.962 1.962 0 0 0 0-3.925z" clip-rule="evenodd"/>
    <mask id="c" width="4" height="5" x="71" y="9" maskUnits="userSpaceOnUse">
        <path fill="#fff" fill-rule="evenodd" d="M71.074 9.573h3.924v3.925h-3.924V9.573z" clip-rule="evenodd"/>
    </mask>
    <g mask="url(#c)">
        <path fill="#1B1719" fill-rule="evenodd" d="M73.036 9.573a1.962 1.962 0 1 0 0 3.925 1.962 1.962 0 0 0 0-3.925z" clip-rule="evenodd"/>
    </g>
    <path fill="#1B1719" fill-rule="evenodd" d="M67.931 4.784a1.962 1.962 0 1 0 0 3.925 1.962 1.962 0 0 0 0-3.925zM48.702 7.799l2.003-5.163 2 5.163h-4.003zm8.97 5.328a.22.22 0 0 0-.028-.104L52.171.223 52.165.22a.305.305 0 0 0-.278-.214l-.001-.001h-2.36a.305.305 0 0 0-.278.215l-.006.004-5.472 12.8a.216.216 0 0 0 .187.32h2.437c.13 0 .241-.082.285-.197l.003-.002 1.126-2.975h5.797l1.126 2.975.003.002a.306.306 0 0 0 .285.197h2.436c.12 0 .217-.097.217-.216zM26.413 0l-5.331.003V0c-2.945 0-5.33 2.58-5.33 5.765V7.58c0 3.184 2.385 5.762 5.33 5.762l5.33.003c.14 0 .255-.114.255-.254v-1.81a.255.255 0 0 0-.254-.254h-4.83s-.625.014-1.255-.283a2.484 2.484 0 0 1-.945-.772s-.21-.272-.326-.753c-.115-.48-.172-1.15-.172-1.15v-.308h7.528c.14 0 .254-.115.254-.254v-1.81a.255.255 0 0 0-.254-.254h-7.528v-.168s.056-.668.172-1.149c.115-.48.326-.753.326-.753s.314-.474.945-.771c.63-.298 1.255-.284 1.255-.284h4.83c.14 0 .254-.113.254-.254V.254A.255.255 0 0 0 26.413 0zM40.093 11.024H36.08s-.52.015-1.043-.283a2.234 2.234 0 0 1-.784-.772s-.218-.418-.218-.908V.223L34.032.22a.254.254 0 0 0-.251-.216h-2.29a.254.254 0 0 0-.25.3l-.004 6.43V9.01c.035 2.404 2.016 4.33 4.427 4.33l4.429.003c.116 0 .21-.114.21-.255V11.28c0-.14-.094-.255-.21-.255zM6.771 5.761l-.673.002H2.8V2.41h3.971c1.487 0 1.94.738 1.94 1.648 0 .911-.453 1.702-1.94 1.702zm5.167 7.252l-3.084-5.23h.005v-.001c1.588-.336 2.69-1.438 2.69-3.829C11.549.77 9.429.038 6.75.003l-.653.001H.253A.254.254 0 0 0 0 .258V13.09c0 .141.114.255.253.255h2.291c.14 0 .255-.114.255-.255V8.072H6.05l2.86 5.064h.004a.397.397 0 0 0 .348.208h2.478v-.002l.015.002c.12 0 .216-.097.216-.217a.214.214 0 0 0-.034-.114h.001z" clip-rule="evenodd"/>
</svg>
