<svg xmlns="http://www.w3.org/2000/svg" width="108" height="19" fill="none" viewBox="0 0 108 19">
    <path fill="url(#a)" fill-rule="evenodd" d="M.989 0h7.788c3.925 0 7.272 2.324 8.557 5.875a2.574 2.574 0 0 0-.958-.5 3.068 3.068 0 0 0-.874-.124H5.627a.269.269 0 0 0-.265.271v.947c0 .15.119.27.265.27h9.434c.416 0 .722.043 1.015.131.897.273 1.362.857 1.6 1.387.147.33.22.686.22 1.045v8.687c0 .558-.443 1.011-.99 1.011H9.12C5.148 19 1.77 16.618.518 13.005c.259.225.595.422 1.028.543.276.078.561.117.847.117h9.864a.28.28 0 0 0 .277-.284v-.924a.28.28 0 0 0-.277-.282H2.834c-.414 0-.72-.043-1.013-.13C.708 11.708.263 10.89.084 10.291A2.097 2.097 0 0 1 0 9.699V1.01A1 1 0 0 1 .989 0z" clip-rule="evenodd"/>
    <path fill="#231F20" fill-rule="evenodd" d="M44.64 7.547c.231 0 .42-.19.42-.425V6.28a.422.422 0 0 0-.42-.424c-.23 0-.419.19-.419.424v.843c0 .234.189.425.42.425zm-14.635 3.156c-.83-.289-1.695-.459-2.532-.623h-.003l-.186-.037c-.561-.11-1.024-.225-1.457-.426-.448-.207-.75-.6-.83-1.075-.077-.47.076-.93.425-1.265.209-.2.481-.342.832-.433a6.322 6.322 0 0 1 2.815-.061c1.054.206 1.534.713 1.713 1.813l.004.039.006.056.023.225h.825l-.009-.18c-.051-1.215-.601-2.055-1.636-2.498-.74-.318-1.507-.366-2.224-.372h-.146c-.055 0-.11 0-.162.002-.668.02-1.206.108-1.694.272-1.261.427-1.836 1.462-1.539 2.77.156.687.618 1.183 1.41 1.519.49.206 1.005.33 1.51.45.293.071.588.135.884.198.535.117 1.088.237 1.62.393.333.098.68.224.955.478.412.385.513 1.207.215 1.76-.208.38-.542.645-1.028.808-1.176.397-2.404.395-3.651-.011-.586-.19-1.005-.56-1.244-1.097-.146-.329-.212-.702-.204-1.146l.003-.175h-.835l.004.27v.003c.003.187.006.38.033.574.154 1.086.772 1.854 1.835 2.282.62.248 1.31.37 2.174.384h.13c.94 0 1.697-.155 2.372-.483.904-.44 1.362-1.078 1.403-1.95.036-.786-.18-1.386-.66-1.835-.34-.32-.754-.491-1.15-.63zm10.066 3.041c.276-.478.402-1.018.406-1.755a8.819 8.819 0 0 0-.01-.166v-.015a3.95 3.95 0 0 0-.03-.383c-.153-1.095-.875-2.253-2.436-2.253h-.057c-1.23.022-2.147.716-2.451 1.86a3.909 3.909 0 0 0 .11 2.391c.25.687.738 1.14 1.445 1.35a3.21 3.21 0 0 0 1.23.106c.793-.066 1.396-.45 1.793-1.135zm-1.848-5.365c.785.05 1.409.285 1.908.713.571.49.935 1.14 1.083 1.93.193 1.044.117 1.955-.235 2.788-.425 1.002-1.185 1.615-2.26 1.814-.716.132-1.401.092-2.04-.122a2.678 2.678 0 0 1-1.314-.944v.35c0 .85 0 1.702.003 2.552a.383.383 0 0 1-.004.08l.001.238h-.835V8.53h.835v1.004c.205-.264.443-.482.72-.656.621-.39 1.324-.553 2.138-.5zm6 7.116h.837v-7.04h-.838v7.04zM52.48 8.73c.88.419 1.333 1.123 1.347 2.095v.031c.004.833.005 4.544.005 4.544v.173h-.836l-.002-4.582c-.004-.685-.257-1.167-.773-1.473a1.967 1.967 0 0 0-.804-.261c-.623-.065-1.08-.006-1.481.193-.701.346-1.098.938-1.215 1.806-.011.08-.017.16-.02.24v4.077h-.836v-.173s.001-4.15-.003-6.052v-.769h.835v.779c.391-.472.928-.765 1.6-.87.861-.134 1.552-.057 2.183.242zm9.965 4.689h-.002c-.395.918-1.08 1.417-2.097 1.527-.08.01-.161.012-.23.015H60.1l-.091.005c-1.131-.013-1.91-.451-2.376-1.344-.298-.566-.394-1.23-.292-2.036.071-.562.273-1.048.602-1.439.459-.547 1.076-.828 1.887-.858.064-.003.125-.005.185-.005.5 0 .906.086 1.268.267.776.386 1.218 1.036 1.354 1.986.104.727.04 1.342-.192 1.882zm-.652-4.526c-.524-.287-1.118-.4-1.828-.409a3.56 3.56 0 0 0-.6.038c-1.196.18-2.05.811-2.542 1.876-.338.733-.434 1.543-.287 2.476.199 1.28.874 2.168 2.009 2.637.421.174.874.26 1.367.26.219 0 .444-.017.68-.05 1.347-.194 2.254-.927 2.696-2.178.327-.918.325-1.881-.002-2.863a3.08 3.08 0 0 0-1.493-1.787zm41.374 4.527c.328-.727.353-1.554.08-2.453-.189-.619-.555-1.082-1.093-1.375-.306-.169-.657-.262-1.138-.3a3.173 3.173 0 0 0-.253-.011c-1.034 0-1.842.546-2.24 1.527-.218.537-.288 1.137-.212 1.832.122 1.127.827 2.326 2.448 2.326h.022c1.128-.011 1.931-.531 2.386-1.546zm-1.196-4.786c.577.173 1.061.5 1.445.978V8.477h.841v7.115h-.841v-1.026a2.603 2.603 0 0 1-.17.206c-.528.582-1.235.911-2.096.978-.132.01-.26.015-.386.015-.568 0-1.062-.105-1.497-.32-.829-.405-1.38-1.082-1.64-2.013-.286-1.014-.249-1.997.11-2.924.446-1.146 1.293-1.815 2.52-1.987a4.055 4.055 0 0 1 1.714.111zm5.188-2.58v9.557H107.65l.017.001h.02l.006-.001h.306V6.053h-.839zm-31.026 4.358c.03.217.033.431.033.613l.003 4.265a.461.461 0 0 1-.004.065l.001.26h-.832v-4.492c0-.006-.001-.482-.098-.826l-.017-.063c-.164-.488-.48-.779-.968-.892a2.46 2.46 0 0 0-1.427.079c-.714.264-1.158.94-1.16 1.764l.005 4.43h-.838v-.173s-.003-3.866-.009-4.548c-.002-.425-.103-.768-.31-1.05-.263-.358-.648-.533-1.246-.564-.043-.003-.086-.003-.129-.003-1.027 0-1.752.677-1.947 1.837a2.872 2.872 0 0 0-.04.426v4.075h-.84v-6.99h.84v.725c.055-.066.114-.13.177-.19.415-.399.932-.616 1.578-.669.517-.041.932 0 1.302.122.51.172.899.5 1.157.976a2.21 2.21 0 0 1 1.227-.962c.576-.19 1.157-.162 1.544-.126.278.026.542.091.785.197.69.294 1.098.87 1.213 1.714zm8.784 1.248h-5.13c.174-1.44 1.126-2.35 2.502-2.376h.084c.672 0 1.187.154 1.611.482.57.44.877 1.063.933 1.894zm.925.626c0-.026-.002-.66-.033-.915-.131-1.124-.67-1.957-1.602-2.472-.548-.303-1.147-.435-2-.414-1.461.032-2.635.918-3.062 2.312a4.721 4.721 0 0 0 .086 3.06c.301.835.897 1.421 1.722 1.693.465.151.93.229 1.389.229a4.28 4.28 0 0 0 1.6-.316c.803-.32 1.342-.922 1.646-1.837l.077-.228h-.748l-.128.029-.043.106a2.131 2.131 0 0 1-1.154 1.178c-.75.324-1.553.346-2.383.07-.492-.165-.867-.5-1.11-.995-.181-.37-.28-.787-.314-1.31v-.003-.004l-.001-.009h6.06l-.002-.174zm8.805-1.46v.018c.004.845.005 4.556.005 4.556v.173h-.836l-.001-4.582c-.003-.685-.256-1.167-.772-1.473a1.98 1.98 0 0 0-.805-.261c-.626-.067-1.08-.004-1.48.193-.701.347-1.098.938-1.216 1.806-.01.08-.016.16-.02.24v4.077h-.837l-.001-6.994h.833v.78c.39-.473.928-.764 1.6-.87.859-.135 1.553-.058 2.183.241.88.419 1.333 1.124 1.347 2.096z" clip-rule="evenodd"/>
    <defs>
        <linearGradient id="a" x1="-.79" x2="18.987" y1="19.998" y2="19.998" gradientUnits="userSpaceOnUse">
            <stop stop-color="#0DDFFF"/>
            <stop offset=".466" stop-color="#735AFF"/>
            <stop offset="1" stop-color="#CE3CC3"/>
        </linearGradient>
    </defs>
</svg>
