<svg xmlns="http://www.w3.org/2000/svg" width="106" height="23" fill="none" viewBox="0 0 106 23">
    <path fill="#000" d="M32.013 8.066l-6.71.206a.411.411 0 0 0-.31.14.494.494 0 0 0-.115.322l.128 1.825a.417.417 0 0 0 .438.399l1.825-.026.411 8.585c0 .116.065.219.142.296.09.077.206.115.321.103l2.057-.142a.417.417 0 0 0 .399-.437l-.245-8.457 1.813-.025a.41.41 0 0 0 .308-.142.433.433 0 0 0 .116-.32l-.128-1.954a.436.436 0 0 0-.45-.373zm7.816.553l-2.031-.116a.437.437 0 0 0-.438.411l-.025 4.473-.887.192-.219-5.076a.425.425 0 0 0-.424-.411l-2.005.051a.449.449 0 0 0-.309.129.449.449 0 0 0-.129.308l.36 11.297c0 .231.193.424.425.424l2.005-.051a.399.399 0 0 0 .309-.129.449.449 0 0 0 .128-.308l-.218-3.779.784.052.141 3.38c0 .115.039.231.116.308.077.09.193.129.308.129l2.096.141h.026a.442.442 0 0 0 .41-.411l.014-10.59a.438.438 0 0 0-.116-.309.575.575 0 0 0-.321-.115zm7.533-.952l-1.851.142a.433.433 0 0 0-.399.424s.013 7.069-.013 7.994c-.012.553.052 1.465-.54 1.49-.41.014-.552-.59-.565-1.439-.013-.964.077-7.53.077-7.608a.443.443 0 0 0-.386-.437l-2.095-.206a.4.4 0 0 0-.334.116.438.438 0 0 0-.142.321s.077 8.277.09 8.573c.026 1.08.849 3.007 3.188 2.93 2.61-.064 3.086-1.62 3.253-3.444.064-.759.193-7.66.193-8.419a.46.46 0 0 0-.142-.32.555.555 0 0 0-.334-.117zm8.124.45l-1.915.09a.431.431 0 0 0-.296.142.423.423 0 0 0-.102.32l.32 5.309-2.005-5.475a.45.45 0 0 0-.45-.283l-1.928.219a.434.434 0 0 0-.385.437l.321 10.461c0 .232.18.411.398.424l1.929.142a.464.464 0 0 0 .334-.116.455.455 0 0 0 .129-.334l-.296-4.575 1.658 4.755c.065.154.206.27.386.283H55.666a.462.462 0 0 0 .283-.116.37.37 0 0 0 .129-.322l-.129-10.91a.41.41 0 0 0-.141-.31.412.412 0 0 0-.322-.14zm2.559-.218h-.412a.435.435 0 0 0-.424.411l-.347 10.873a.417.417 0 0 0 .398.437c.013 0 .258.026.643.026 1.35 0 4.577-.245 5.31-2.507.617-1.889.514-4.46.36-5.68-.296-2.39-2.109-3.56-5.528-3.56zm2.88 7.158c-.232 1.838-.81 1.954-1.44 2.172l.295-6.824c.219.051.502.051.849.527.527.681.514 2.339.295 4.125zm8.947 2.66l-2.52.194-.116-2.352 1.633-.09a.427.427 0 0 0 .398-.386l.155-1.452a.427.427 0 0 0-.116-.347.41.41 0 0 0-.334-.129l-1.774.09v-2.557h2.61a.433.433 0 0 0 .436-.437c0-.039 0-.064-.012-.09l-.142-1.53c-.026-.23-.206-.398-.437-.385l-4.782.115a.448.448 0 0 0-.424.437l.154 10.745a.43.43 0 0 0 .437.424h4.847a.42.42 0 0 0 .424-.424l.038-1.401a.48.48 0 0 0-.128-.321.484.484 0 0 0-.347-.103zm7.829-6.31c-.103-1.503-.63-3.508-3.908-3.508-.708 0-1.53.09-2.456.27a.428.428 0 0 0-.347.424l.154 10.513c0 .218.18.411.399.424l1.504.116a.375.375 0 0 0 .321-.116.418.418 0 0 0 .142-.321v-3.393l.771-.039.848 3.624a.427.427 0 0 0 .425.347h.038l1.504-.115a.44.44 0 0 0 .309-.167c.077-.09.103-.219.077-.335l-1.067-4.035c.746-.553 1.44-1.594 1.285-3.689zm-2.713 1.491c-.386.412-1.054.54-1.478.579v-3.11c.141-.026.282-.04.411-.04.578 0 1.286.258 1.376 1.492.038.462-.065.81-.309 1.08zm8.459 1.594c.617-.823 2.198-2.725 2.031-6.053a.384.384 0 0 0-.141-.296.41.41 0 0 0-.309-.103l-1.787.103a.424.424 0 0 0-.398.463c.064.938-.566 2.956-1.453 4.228l.129-4.1a.399.399 0 0 0-.129-.308.449.449 0 0 0-.308-.129l-2.314.039a.474.474 0 0 0-.309.128.438.438 0 0 0-.116.309l.232 10.885a.39.39 0 0 0 .154.322c.09.077.219.115.334.103l1.8-.245a.43.43 0 0 0 .373-.424l.025-3.187c.36.218 1.44 1.773 1.62 3.303a.43.43 0 0 0 .424.386l1.903-.013h.026a.478.478 0 0 0 .283-.129.388.388 0 0 0 .115-.308c-.013-.399-.655-3.74-2.185-4.974zm5.373-6.696l-2.056.27a.42.42 0 0 0-.373.424l-.013 10.667a.46.46 0 0 0 .141.322.46.46 0 0 0 .309.115h.013l2.237-.167a.426.426 0 0 0 .398-.437l-.167-10.757a.39.39 0 0 0-.154-.321.4.4 0 0 0-.335-.116zm4.371.321c-.617.039-2.66.412-2.828 3.406-.026.386-.038.745-.064 1.093-.129 2.043-.206 3.521.051 4.806.154.758.797 2.545 3.33 2.545.154 0 .321-.013.488-.026 1.054-.09 1.838-.424 2.327-1.002.694-.823.604-1.89.553-2.455l-.013-.116c-.013-.231-.219-.398-.45-.398l-1.594.064a.424.424 0 0 0-.399.501c.039.219.078.9-.205 1.234-.064.09-.206.206-.502.206h-.025c-.232 0-.399-.064-.54-.219-.232-.244-.502-.848-.424-2.313.012-.334.038-.733.051-1.157.038-1.092.09-2.339.193-3.123v-.026c.077-.59.193-.848.694-.873.36-.013.604.051.733.218.167.206.141.54.128.655a.452.452 0 0 0 .09.36.415.415 0 0 0 .335.155l1.928.025c.231 0 .424-.18.437-.41 0-.052.038-1.222-.849-2.134-.77-.772-1.928-1.119-3.445-1.016zm12.791 10.899c-.025-.129-.861-3.393-2.545-4.935.823-.784 2.52-2.327 1.954-5.822a.43.43 0 0 0-.476-.36l-2.224.244a.462.462 0 0 0-.295.167.433.433 0 0 0-.077.334c0 .039.462 2.57-1.26 4.087l.038-4.318a.438.438 0 0 0-.141-.321.454.454 0 0 0-.334-.103l-2.224.244a.443.443 0 0 0-.386.437l.257 10.809a.41.41 0 0 0 .141.308.367.367 0 0 0 .296.103h.039l1.877-.206a.44.44 0 0 0 .385-.411l.155-3.38c.591.617 1.594 2.185 1.748 3.508a.431.431 0 0 0 .475.373l2.224-.244a.43.43 0 0 0 .309-.18.34.34 0 0 0 .064-.334zM19.792 15.306l.692-4.795-2.88-6.016-1.964.666-2.557-2.73L8.551 0l-.994 3.63-.703-1.91-3.46 3.375L1.45 8.469l-.09 3.496L0 11.322l.938 5.605 2.11 3.607 4.99 1.698 4.085.145 7.044-2.564 2.032-4.984-1.407.477zm-3.058-2.653l-3.997.111-.145 4.474-.212 2.641-3.483-.033v-2.542l-.29-4.429-4.175.178-.145-4.296 6.15-.033 6.364-.177.111.577-.178 3.53z"/>
</svg>
