<svg xmlns="http://www.w3.org/2000/svg" width="79" height="23" fill="none" viewBox="0 0 79 23">
    <path fill="#291E47" d="M0 6.195h2.387V18.91h3.35V6.195h2.388v-3.12H0v3.12zM35.806 3.074V18.91h7.528v-3.12h-4.223v-3.168h3.351V9.5h-3.35V6.195h4.222v-3.12h-7.528zM20.52 8.674c0-2.754-2.387-5.6-6.152-5.6h-3.305V18.91h3.305v-4.223c.322 0 .643-.045.919-.091l2.203 4.314h3.672l-2.8-5.554c1.469-1.101 2.158-2.8 2.158-4.682zm-6.152 2.984V6.195c1.607-.091 2.892 1.332 2.892 2.617 0 1.469-1.055 2.708-2.892 2.846zM29.47 14.458c0 1.102-.734 1.79-1.607 1.79-.872 0-1.606-.688-1.606-1.79V3.074h-3.213V14.32c0 2.846 2.02 4.958 4.774 4.958 2.8 0 4.774-2.112 4.774-4.958V3.074h-3.214v11.384h.092zM45.675 0v1.331h1.193v15.102h7.528v-3.121h-4.223V1.332H79V0H45.675z"/>
    <path fill="#291E47" d="M65.091 13.405c-.918-4.223-1.744-7.85-1.744-7.85H59.4s-.827 3.627-1.745 7.85c-1.01 4.498-1.652 7.757-1.652 7.757H45.675v1.332H79v-1.332H66.744s-.643-3.259-1.653-7.757zm-3.718-1.882l1.102 4.911h-2.157l1.055-4.911zm-2.065 9.64l.367-1.699h3.443l.367 1.698h-4.177z"/>
    <path fill="#291E47" d="M77.438 5.967c-1.24-3.03-4.59-2.892-4.59-2.892H69.68V18.82h3.168c3.58.137 4.682-2.387 4.682-2.387 1.836-3.672-.826-5.922-.826-5.922 1.836-2.157.734-4.544.734-4.544zm-4.59.23c1.882.045 1.606 1.744 1.606 1.744-.137 1.24-1.606 1.24-1.606 1.24V6.195zm2.02 8.124c-.184 1.515-2.02 1.56-2.02 1.56v-3.717c2.387.046 2.02 2.157 2.02 2.157z"/>
</svg>
