<svg xmlns="http://www.w3.org/2000/svg" width="107" height="11" fill="none" viewBox="0 0 107 11">
    <path fill="#000" fill-rule="evenodd" d="M64.18 10.678h2.327L62.321.162h-1.746l-4.164 10.516h2.329l.694-1.865h4.074l.671 1.865zM61.47 3.296l1.41 3.813h-2.865l1.455-3.813zM94.31 10.678h2.328L92.429.162h-1.746l-4.164 10.516h2.328l.694-1.865h4.097l.671 1.865zm-2.688-7.382l1.41 3.813h-2.865l1.455-3.813z" clip-rule="evenodd"/>
    <path fill="#000" d="M107 10.719h-2.015l-4.544-6.457v6.457h-2.239V.203h1.993l4.566 6.437V.203H107v10.516zM74.9 10.719h-7.544v-1.66l4.902-7.032h-4.7V.203H74.9v1.62l-4.925 7.05H74.9v1.846z"/>
    <path fill="#000" fill-rule="evenodd" d="M85.778 5.369V4.344c0-.02-.003-.052-.006-.095-.007-.085-.017-.212-.017-.376a2.434 2.434 0 0 0-.064-.596 2.622 2.622 0 0 1-.07-.368 1.343 1.343 0 0 0-.134-.471 3.238 3.238 0 0 0-.202-.43 2.345 2.345 0 0 0-.29-.452 6.17 6.17 0 0 0-.381-.39C83.897.49 82.89.163 81.592.163H77.45v10.496h4.142c1.276 0 2.283-.328 3.022-1.005.134-.123.268-.266.38-.39.112-.143.202-.286.291-.45.068-.164.135-.308.202-.43.067-.124.112-.288.134-.493.026-.12.045-.219.06-.3.011-.059.02-.108.03-.15.022-.103.044-.288.044-.534.023-.246.023-.41.023-.492V5.37zm-2.323-1.803c.067.39.09.984.09 1.824 0 .861-.023 1.497-.068 1.866-.067.41-.201.717-.403.943-.38.43-.94.656-1.679.656h-1.701V2.008h1.679c.739 0 1.298.225 1.679.656.201.225.336.533.403.902z" clip-rule="evenodd"/>
    <path fill="#000" d="M44.233.21h2.239v6.13l2.194-3.977h1.522l2.216 3.977V.21h2.239v10.517h-2.217l-3-5.699-2.977 5.678h-2.216V.211zM.713 0H11.19c.403 0 .716.287.716.656v9.532c0 .595-.783.881-1.231.471L.22 1.127C-.25.717.086 0 .713 0zM24.392 0H13.938c-.403 0-.716.287-.716.656v9.532c0 .595.783.881 1.231.471l10.454-9.532c.47-.41.135-1.127-.515-1.127zM37.54 0H27.062c-.403 0-.717.287-.717.656v9.532c0 .595.784.881 1.231.471l10.477-9.532c.47-.41.134-1.127-.515-1.127z"/>
</svg>
