<svg xmlns="http://www.w3.org/2000/svg" width="102" height="25" fill="none" viewBox="0 0 102 25">
    <path fill="#000" fill-rule="evenodd" d="M88.53 11.574c.34.111.68.222 1.005.366.92.404 1.416 1.114 1.412 2.136-.004 1.048-.423 1.862-1.375 2.356-.61.316-1.27.417-1.947.399-1.277-.034-2.422-.442-3.42-1.248-.035-.029-.07-.06-.11-.097l-.061-.056 1.11-1.337.187.134h.001v.001c.129.094.254.184.384.268.792.51 1.643.78 2.592.588.498-.1.753-.41.745-.842a.638.638 0 0 0-.403-.609 16.927 16.927 0 0 0-1.253-.456c-.185-.062-.374-.117-.562-.171a9.523 9.523 0 0 1-.883-.288c-1.125-.45-1.591-1.145-1.58-2.277.01-1.1.587-1.983 1.623-2.374 1.353-.51 2.668-.304 3.93.336.174.09.338.2.509.315.082.056.165.112.253.168l-.527.766-.421.613c-.18-.074-.358-.15-.534-.226a18.178 18.178 0 0 0-1.218-.488 1.718 1.718 0 0 0-1.154-.006c-.314.111-.544.339-.569.693-.024.35.136.615.453.735.312.119.631.22.95.32.188.06.375.118.561.181l.302.1zm-9.56-3.619h-.904L74.3 16.752h2.022l2.647-6.473 1.157 2.869h-1.565l-.67 1.685h2.914l.812 1.919h2.022l-3.766-8.797h-.903zm-17.389.176c-.752-.129-1.514-.134-2.279-.12h-1.771v1.13h.004v7.657h1.908v-.003c.677.005 1.352-.005 2.02-.08 2.142-.244 3.697-2.062 3.728-4.175.033-2.25-1.413-4.035-3.61-4.41zm-25.67-.113l-2.08 3.908h-.001l-2.08-3.908s-2.234.005-2.253-.012l3.366 5.932v2.882h1.925v-2.866l3.375-5.948c-.02.017-2.252.012-2.252.012zm25.008 7.05c.826-.058 1.303-.45 1.303-.45 1.376-.971.967-2.846.967-2.846-.348-1.804-1.923-2.049-2.261-2.062l-1.466-.001v5.365h1.457v-.005zm10.77-1.386l-.006.003c-.004.003-.007.007-.014.017l-.017.025c.436.642 2.099 3.02 2.099 3.02H71.52l-1.861-2.718h-.525v-1.676h.944c.15-.003.303-.007.45-.037.692-.14 1.075-.627 1.067-1.28-.008-.666-.384-1.186-1.09-1.246a9.978 9.978 0 0 0-.558-.029h-1.535v6.966h-.013v.034h-1.934V8.046H67.608l.267-.002c.842-.003 1.683-.007 2.524.004.705.01 1.383.166 1.979.57.84.57 1.146 1.403 1.136 2.38-.012 1.238-.567 2.13-1.716 2.63a1.8 1.8 0 0 0-.109.054zm22.7 3.13h-1.972V8.028h1.973v8.782zm3.549-1.743v-7.04h-1.974v8.782h1.974v-.002H102v-1.74h-4.062zM46.32 12.245h-2.717v1.466h.913v.98c-.61.627-2.065.532-2.065.532-1.925-.18-2.338-1.848-2.338-1.848-.459-1.905.395-2.906 1.049-3.327.48-.31.962-.396.962-.396 1.703-.223 2.7.86 2.7.86L46.01 9.06a1.229 1.229 0 0 1-.068-.055l-.019-.016c-1.217-1.021-2.64-1.307-4.159-1.048-2.248.385-3.696 2.116-3.772 4.401-.06 1.845.905 3.502 2.546 4.181 1.318.546 2.575.58 3.764.18l.011-.004a6.123 6.123 0 0 0 1.288-.62c.546-.32.719-.522.719-.522l.002-2.344-.002-.783v-.184zm6.932 0h2.717v.184l.001.783-.002 2.344s-.172.203-.717.52a6.119 6.119 0 0 1-1.3.625c-1.19.401-2.446.367-3.764-.179-1.641-.679-2.606-2.336-2.546-4.18.076-2.286 1.524-4.017 3.772-4.402 1.519-.26 2.942.027 4.16 1.048l.018.016c.02.018.042.036.068.055l-1.186 1.453s-.997-1.083-2.7-.86c0 0-.481.086-.962.396-.654.421-1.508 1.422-1.05 3.327 0 0 .413 1.668 2.34 1.848 0 0 1.454.095 2.064-.533v-.979h-.913v-1.466z" clip-rule="evenodd"/>
    <path fill="#F96432" fill-rule="evenodd" d="M23.657 7.03s.615 1.278.903 2.833c0 0-2.46.694-4.167 2.332 1.293.447 2.758.76 4.418.888 0 0-.091 1.791-.546 2.915 0 0-2.822-.002-6.117-1.518a18.78 18.78 0 0 1-5.742-4.16 18.774 18.774 0 0 1-5.743 4.16C3.368 15.996.547 15.998.547 15.998.09 14.874 0 13.083 0 13.083c1.648-.128 3.104-.437 4.39-.878C2.683 10.571.228 9.878.228 9.878c.288-1.555.903-2.833.903-2.833 2.947.794 5.096 2.64 6.194 3.773a13.512 13.512 0 0 0 2.852-2.38c-.2-.03-4.42-.702-7.384-4.021 0 0 .865-1.123 2.125-2.08 0 0 1.793 2.05 4.133 2.785A16.706 16.706 0 0 1 7.933.744S9.208.12 10.756 0c0 0 .232 2.427 1.65 5.196C13.822 2.427 14.055 0 14.055 0c1.548.121 2.823.744 2.823.744a16.704 16.704 0 0 1-1.112 4.362c2.317-.747 4.087-2.769 4.087-2.769 1.26.957 2.125 2.08 2.125 2.08-2.86 3.202-6.89 3.94-7.349 4.015.78.858 1.715 1.67 2.834 2.371 1.098-1.133 3.247-2.98 6.194-3.773zm-11.28 10.524l3.072-3.981c1.012.728 2.611 1.437 2.611 1.437l-4.226 5.5.002.004h-.005v4.15c-1.336.222-2.926 0-2.926 0 .029.028.02-3.841.02-4.15l-4.23-5.504s1.6-.709 2.61-1.437l3.072 3.981z" clip-rule="evenodd"/>
</svg>
