<?xml version="1.0" encoding="UTF-8"?>
<svg width="177px" height="32px" viewBox="0 0 177 32" version="1.1" xmlns="http://www.w3.org/2000/svg" xmlns:xlink="http://www.w3.org/1999/xlink">
  <!-- Generator: Sketch 50.2 (55047) - http://www.bohemiancoding.com/sketch -->
  <title>Group 20</title>
  <desc>Created with Sketch.</desc>
  <defs>
    <linearGradient x1="100%" y1="0%" x2="0%" y2="100%" id="linearGradient-1">
      <stop stop-color="#2EFF71" offset="0%"></stop>
      <stop stop-color="#009148" offset="100%"></stop>
    </linearGradient>
  </defs>
  <g id="Symbols" stroke="none" stroke-width="1" fill="none" fill-rule="evenodd">
    <g id="Header/Logo-Black-Cyr">
      <g id="Group-20">
        <g id="Group">
          <polygon id="Fill-4" fill="#FFFFFF" points="56.6574437 9.11115294 49.1102479 9.11115294 49.1102479 25.8963294 44.1814896 25.8963294 44.1814896 4.53342745 61.5862021 4.53342745 61.5862021 25.8963294 56.6574437 25.8963294"></polygon>
          <path d="M71.1813208,21.9900549 C72.7523833,21.9900549 73.9538167,20.8914667 73.9538167,19.0297412 C73.9538167,17.259702 72.72135,16.0694275 71.1813208,16.0694275 C69.7028042,16.0694275 68.408825,17.1680157 68.408825,19.0297412 C68.408825,20.7690353 69.6102583,21.9900549 71.1813208,21.9900549 M71.1813208,11.7969569 C75.9255417,11.7969569 78.882575,14.909898 78.882575,19.0297412 C78.882575,23.1495843 75.9255417,26.2625255 71.1813208,26.2625255 C66.4371,26.2625255 63.4800667,23.1495843 63.4800667,19.0297412 C63.4800667,14.909898 66.4371,11.7969569 71.1813208,11.7969569" id="Fill-6" fill="#FFFFFF"></path>
          <polygon id="Fill-8" fill="#FFFFFF" points="80.5306667 12.1629333 85.1513083 12.1629333 85.1513083 18.5112471 88.9096667 12.1629333 94.7012625 12.1629333 90.2036458 18.6940706 95.3784542 25.8966588 89.4023208 25.8966588 85.1513083 19.4874039 85.1513083 25.8966588 80.5306667 25.8966588"></polygon>
          <path d="M99.4598917,17.5035216 L104.450162,17.5035216 C104.450162,16.5575608 103.679871,15.6116 102.201354,15.6116 C100.661325,15.6116 99.8910333,16.283051 99.4598917,17.5035216 Z M107.746346,24.7061098 C106.298862,25.7739529 104.327137,26.2625804 102.355967,26.2625804 C97.7962833,26.2625804 94.83925,23.3632078 94.83925,19.0297961 C94.83925,15.0318353 97.7962833,11.7964627 102.355967,11.7964627 C105.929233,11.7964627 109.071358,14.3603843 109.071358,18.2672078 C109.071358,19.335051 108.978812,19.9450118 108.793721,20.5560706 L99.61395,20.5560706 C100.045092,21.8676784 101.339071,22.4479922 102.848067,22.4479922 C104.450162,22.4479922 105.744142,21.9291686 106.4834,21.4712863 L107.746346,24.7061098 Z" id="Fill-10" fill="#FFFFFF"></path>
          <path d="M115.459127,17.2901176 L115.459127,21.470902 C116.136872,21.8678431 116.629527,21.9902745 117.615943,21.9902745 C119.617593,21.9902745 120.572977,20.5864314 120.572977,18.9075294 C120.572977,17.3208627 119.617593,16.069098 117.861993,16.069098 C116.968677,16.069098 116.229418,16.4352941 115.459127,17.2901176 Z M110.838485,12.1628235 L115.459127,12.1628235 L115.459127,13.2010196 C116.229418,12.4373333 117.615943,11.7966275 119.309477,11.7966275 C123.037356,11.7966275 125.501735,14.7574902 125.501735,18.8158431 C125.501735,22.9971765 122.544147,26.2627451 118.046531,26.2627451 C117.091702,26.2627451 116.105839,26.1095686 115.459127,25.8350588 L115.459127,32 L110.838485,32 L110.838485,12.1628235 Z" id="Fill-12" fill="#FFFFFF"></path>
          <path d="M132.570685,21.6238588 L136.082993,21.6238588 L136.082993,16.4356235 L134.018722,16.4356235 L133.95721,16.9851922 C133.680127,19.2740549 133.125406,20.7690353 132.570685,21.6238588 Z M125.947839,21.6238588 L127.734472,21.6238588 C128.781847,20.2502118 129.367602,17.5342118 129.521106,15.1234667 L129.706197,12.1631529 L140.703635,12.1631529 L140.703635,21.6238588 L143.013956,21.6238588 L143.013956,28.9483294 L138.701431,28.9483294 L138.701431,25.8963294 L130.260364,25.8963294 L130.260364,28.9483294 L125.947839,28.9483294 L125.947839,21.6238588 Z" id="Fill-14" fill="#FFFFFF"></path>
          <path d="M151.392512,21.9900549 C152.963575,21.9900549 154.165008,20.8914667 154.165008,19.0297412 C154.165008,17.259702 152.932542,16.0694275 151.392512,16.0694275 C149.913996,16.0694275 148.620017,17.1680157 148.620017,19.0297412 C148.620017,20.7690353 149.82145,21.9900549 151.392512,21.9900549 M151.392512,11.7969569 C156.136733,11.7969569 159.093767,14.909898 159.093767,19.0297412 C159.093767,23.1495843 156.136733,26.2625255 151.392512,26.2625255 C146.648292,26.2625255 143.691812,23.1495843 143.691812,19.0297412 C143.691812,14.909898 146.648292,11.7969569 151.392512,11.7969569" id="Fill-16" fill="#FFFFFF"></path>
          <polygon id="Fill-18" fill="#FFFFFF" points="160.602652 12.1629333 164.761118 12.1629333 168.920139 16.8323451 172.770489 12.1629333 176.805931 12.1629333 176.805931 25.8966588 172.184735 25.8966588 172.184735 19.1514039 168.827593 22.9665412 168.735047 22.9665412 165.223293 19.1514039 165.223293 25.8966588 160.602652 25.8966588"></polygon>
          <path d="M0.420472492,5.4201226e-05 C0.18807767,5.4201226e-05 0,0.18921648 0,0.42173974 L0,0.42173974 L0,20.5352727 C0,26.6258645 4.96946602,31.6096673 11.0430777,31.6096673 L11.0430777,31.6096673 C16.6065016,31.6096673 21.2403463,27.4275006 21.9802265,22.0436929 L21.9802265,22.0436929 C27.3485469,21.3016781 31.5181424,16.6539229 31.5181424,11.0749907 L31.5181424,11.0749907 C31.5181424,4.98385694 26.5492168,5.4201226e-05 20.4756052,5.4201226e-05 L20.4756052,5.4201226e-05 L0.420472492,5.4201226e-05 Z M6.09360841,20.5352727 L6.09360841,6.32208521 C6.09360841,6.20555258 6.18764725,6.11124245 6.30384466,6.11124245 L6.30384466,6.11124245 L20.4756052,6.11124245 C23.0249223,6.11124245 25.4250744,8.11289373 25.4250744,11.0749907 L25.4250744,11.0749907 C25.4250744,13.5920957 23.5502427,15.9894159 20.4869547,15.9894159 L20.4869547,15.9894159 L16.3849159,16.0132644 C16.1546828,16.0143485 15.9682265,16.2013427 15.9666052,16.4322399 L15.9666052,16.4322399 L15.9433657,20.546113 C15.9433657,23.6187805 13.5529417,25.498479 11.0430777,25.498479 L11.0430777,25.498479 C8.09004207,25.498479 6.09360841,23.0919446 6.09360841,20.5352727 L6.09360841,20.5352727 Z M24.2695858,27.9830632 C24.2695858,29.9950127 25.8958091,31.6264696 27.9025113,31.6264696 L27.9025113,31.6264696 C29.9086731,31.6264696 31.5354369,29.9950127 31.5354369,27.9830632 L31.5354369,27.9830632 C31.5354369,25.9705717 29.9086731,24.3396568 27.9025113,24.3396568 L27.9025113,24.3396568 C25.8958091,24.3396568 24.2695858,25.9705717 24.2695858,27.9830632 L24.2695858,27.9830632 Z" id="Fill-1" fill="url(#linearGradient-1)"></path>
        </g>
      </g>
    </g>
  </g>
</svg>
