<svg xmlns="http://www.w3.org/2000/svg" width="30" height="30" viewBox="0 0 30 30">
  <defs>
    <linearGradient id="a" x1="100%" x2="0%" y1="0%" y2="100%">
      <stop offset="0%" stop-color="#2EFF71"/>
      <stop offset="100%" stop-color="#009148"/>
    </linearGradient>
  </defs>
  <path fill="url(#a)" fill-rule="evenodd" d="M.394 0A.395.395 0 0 0 0 .395v18.857c0 5.71 4.659 10.382 10.353 10.382 5.216 0 9.56-3.92 10.253-8.968 5.033-.696 8.942-5.053 8.942-10.283C29.548 4.673 24.89 0 19.196 0H.394zm5.319 19.252V5.927c0-.11.088-.198.197-.198h13.286c2.39 0 4.64 1.877 4.64 4.654 0 2.36-1.758 4.607-4.63 4.607l-3.845.022a.395.395 0 0 0-.392.393l-.022 3.857c0 2.88-2.241 4.643-4.594 4.643-2.769 0-4.64-2.256-4.64-4.653zm17.04 6.982a3.41 3.41 0 0 0 3.406 3.416c1.88 0 3.405-1.53 3.405-3.416a3.41 3.41 0 0 0-3.405-3.416 3.41 3.41 0 0 0-3.406 3.416z"/>
</svg>
